<svg width="873" height="382" viewBox="0 0 873 382" fill="none" xmlns="http://www.w3.org/2000/svg">
<path d="M11.74 249.82C26.3612 282.89 49.0348 311.769 77.69 333.82C136.69 378.98 201.24 379.16 220.94 378.46" stroke="#E1E1E1" stroke-width="5.7" stroke-miterlimit="10" stroke-linecap="round"/>
<path d="M209 69.23C209 98.23 180.3 114.71 180.3 114.71C166.39 105.92 149.25 92.77 149.25 91.43V74.35C140.71 77.77 120.25 81.18 120.25 81.18C120.25 81.18 116.84 77.77 104.89 74.35C98.2307 72.3556 91.3463 71.2098 84.4 70.94C84.4 70.94 84.4 69.23 74.16 55.57C72.16 52.89 69.8 50.01 67.34 47.12C94.3726 23.8026 127.417 8.55573 162.7 3.12C162.7 3.12 209 40.21 209 69.23Z" fill="#006099"/>
<path d="M324.57 113.8C320.64 155.3 295 181.48 285.71 191C276.71 200.18 268.52 207.21 249.99 217.8C214.14 238.28 162.92 246.8 142.43 318.53C139.43 309.11 132.58 283.69 142.43 255.36C146.55 243.604 152.876 232.743 161.07 223.36C162.94 221.27 171.9 211.21 183.39 204.5C188.79 201.34 194.11 198.02 199.53 194.88C200.2 194.49 202.39 193.18 205.22 191.28C205.22 191.28 206.52 190.4 207.83 189.44C223.42 177.98 228.22 171.33 228.22 171.33C233.334 164.084 236.714 155.76 238.1 147C238.296 145.177 238.63 143.372 239.1 141.6C239.901 138.604 241.092 135.727 242.64 133.04L237.64 132.46L231.55 132.34L227.76 132.43C226.06 132.43 208.98 130.72 208.98 130.72C208.98 130.72 203.86 127.31 190.2 120.48C187.37 119.06 183.94 117.05 180.28 114.74C180.28 114.74 208.98 98.28 208.98 69.26C208.98 40.24 162.65 3.19999 162.65 3.19999C172.333 1.71638 182.114 0.9709 191.91 0.969997C232.941 0.904837 272.895 14.0965 305.82 38.58C312.2 48.58 328.09 76.67 324.57 113.8Z" fill="#817AF3"/>
<path d="M381.67 168.19C366.51 221.03 333.67 231.42 299.5 245.07C265.33 258.72 200.5 267.27 178.28 282.63C156.06 297.99 151 333.86 151 333.86C146.834 329.594 143.885 324.29 142.46 318.5C162.95 246.79 214.17 238.25 250.02 217.77C268.08 207.45 276.34 200.51 285.74 190.97C294.52 182.06 314.39 161.4 321.91 129.76C332.51 85.13 311.56 47.96 305.91 38.58C326.641 53.9436 344.042 73.3497 357.063 95.6264C370.085 117.903 378.455 142.588 381.67 168.19V168.19Z" fill="#00E0FF"/>
<path d="M383.16 192.16C383.202 227.406 373.453 261.971 355 292C291 344.1 226.07 313.35 193.63 321.88C161.19 330.41 173.14 356.03 173.14 356.03C161.14 349.2 150.95 333.83 150.95 333.83C150.95 333.83 156.07 297.98 178.26 282.61C200.45 267.24 265.34 258.71 299.48 245.05C333.62 231.39 366.48 221.05 381.65 168.17C382.651 176.128 383.155 184.14 383.16 192.16V192.16Z" fill="#817AF3"/>
<path d="M355 292C340.623 315.505 321.338 335.626 298.464 350.987C275.59 366.348 249.667 376.586 222.47 381C188.15 373.46 173.16 356.11 173.16 356.11C173.16 356.11 161.16 330.5 193.65 321.96C226.14 313.42 291 344.13 355 292Z" fill="#006099"/>
<path d="M226.09 137.52C226.61 135.71 227.19 134.01 227.79 132.4C220.815 132.259 213.906 131.013 207.32 128.71C201.82 126.76 197.21 124.25 190.23 120.45C186.16 118.23 183.02 116.45 180.31 114.71C166.4 105.92 149.26 92.77 149.26 91.43V74.35C140.72 77.77 120.26 81.18 120.26 81.18C120.26 81.18 116.85 77.77 104.9 74.35C98.2407 72.3556 91.3563 71.2098 84.41 70.94C84.41 70.94 84.41 69.23 74.17 55.57C72.17 52.89 69.81 50.01 67.35 47.12C57.26 35.25 45.14 23.12 45.14 23.12C45.14 23.12 38.31 35.12 36.61 45.32C34.91 55.52 33.19 62.39 33.19 62.39C33.19 62.39 29.78 60.68 29.78 57.27C29.78 53.86 26.36 62.39 26.36 62.39C26.36 62.39 24.65 84.59 22.95 94.83C21.25 105.07 20.81 106.83 20.81 106.83C9.15079 130.269 2.41373 155.847 1.0138 181.988C-0.386124 208.129 3.58074 234.28 12.67 258.83C18.1668 246.16 25.0487 234.137 33.19 222.98C46.85 204.2 62.19 195.66 81 187.13C94.3756 181.261 108.063 176.13 122 171.76L115.11 170C108.28 168.29 99.75 163.17 99.75 163.17C121.326 164.918 142.982 165.489 164.62 164.88C164.62 164.88 188.48 164.16 209.75 158.03C213.862 156.822 217.874 155.298 221.75 153.47C222.5 153.11 223.1 152.8 223.48 152.6C223.8 147.493 224.675 142.437 226.09 137.52ZM58.75 76.83C57.88 77.4 56.35 74.77 53.87 75.01C50.95 75.29 48.87 79.34 47.5 83.29C47.6 82.54 47.8 80.97 48.03 78.99C49.51 65.72 49.45 53.69 50.03 53.68C50.03 53.68 50.11 53.74 50.21 53.86C50.4838 54.183 50.6759 54.5672 50.77 54.98C51.1 56.3 61.08 75.3 58.75 76.83ZM144.14 125.57C144.181 126.25 144.079 126.932 143.84 127.57C143.37 128.62 142.16 129.67 139.01 130.71C133.89 132.42 125.36 130.71 125.36 130.71L128.11 127.36C129.53 126.07 131.48 124.36 133.89 122.19C135.166 121.099 136.542 120.131 138 119.3C140.19 118.05 141.19 117.89 141.85 118.3C142.12 118.45 142.31 118.67 142.64 119.37C143.601 121.297 144.114 123.417 144.14 125.57V125.57Z" fill="#E1E1E1"/>
<path d="M67 75.47C66.56 78.37 63 78.19 55.13 83.99C49.23 88.35 47.13 91.5 45.61 90.75C44.3 90.1 45.01 87.37 45.4 80.94C45.79 74.51 45.78 65.53 47.83 55.56C48.02 54.61 48.33 53.18 49.2 52.95C50.91 52.47 67.42 72.37 67 75.47Z" fill="#006099"/>
<path d="M144.14 125.57C144.059 126.903 143.492 128.16 142.547 129.104C141.602 130.047 140.343 130.612 139.01 130.69C134.49 131.432 129.88 131.432 125.36 130.69V130.69L124.71 130.19C126.327 126.952 128.343 123.928 130.71 121.19C132.71 118.91 133.71 118.26 134.66 117.84C137.38 116.66 141.66 116.54 143.59 119.06C145 120.93 144.54 123.46 144.14 125.57Z" fill="#006099"/>
<path d="M239.26 145C238.157 145.969 236.93 146.787 235.61 147.43C234.44 148 233.4 148.49 232.52 148.9C230.57 149.8 228.86 150.59 226.64 151.44C225.42 151.9 224.34 152.28 223.45 152.57C223.517 147.488 224.287 142.44 225.74 137.57C226.261 135.834 226.868 134.125 227.56 132.45C229.48 132.38 231.18 132.36 232.62 132.36C234.53 132.36 235.88 132.36 237.62 132.48C239.36 132.6 241.2 132.83 242.62 133.06C242.66 133.41 243.11 141.51 239.26 145Z" fill="#006099"/>
<path d="M209.85 302.28C209.2 302.28 210.19 311.72 206.58 316.95C202.97 322.18 196.07 320.69 196.07 321.58C196.07 322.47 202.89 320.79 206.58 326.11C210.39 331.62 209.11 342.11 209.66 342.11C210.21 342.11 209.02 331.6 212.89 326.11C216.56 320.91 223.16 322.51 223.16 321.58C223.16 320.65 216.48 322.25 212.89 316.95C209.3 311.65 210.5 302.29 209.85 302.28Z" fill="white"/>
<path d="M321.88 71.14C320.78 71.14 322.46 87.14 316.33 96.03C310.04 105.13 298.51 102.37 298.51 103.88C298.51 105.39 310.08 102.53 316.33 111.56C322.8 120.9 320.63 138.7 321.56 138.71C322.49 138.72 320.47 120.88 327.04 111.56C333.26 102.74 344.45 105.44 344.45 103.88C344.45 102.32 333.12 105 327 96C320.88 87 323 71.16 321.88 71.14Z" fill="white"/>
<path d="M312.31 321.06C316.082 321.06 319.14 318.002 319.14 314.23C319.14 310.458 316.082 307.4 312.31 307.4C308.538 307.4 305.48 310.458 305.48 314.23C305.48 318.002 308.538 321.06 312.31 321.06Z" fill="white"/>
<path d="M181.7 259.6C184.058 259.6 185.97 257.688 185.97 255.33C185.97 252.972 184.058 251.06 181.7 251.06C179.342 251.06 177.43 252.972 177.43 255.33C177.43 257.688 179.342 259.6 181.7 259.6Z" fill="white"/>
<path d="M189.38 35.94C193.152 35.94 196.21 32.8821 196.21 29.11C196.21 25.3379 193.152 22.28 189.38 22.28C185.608 22.28 182.55 25.3379 182.55 29.11C182.55 32.8821 185.608 35.94 189.38 35.94Z" fill="white"/>
<path opacity="0.64" d="M185.11 54.72C186.524 54.72 187.67 53.5739 187.67 52.16C187.67 50.7462 186.524 49.6 185.11 49.6C183.696 49.6 182.55 50.7462 182.55 52.16C182.55 53.5739 183.696 54.72 185.11 54.72Z" fill="white"/>
<path opacity="0.64" d="M339.99 119.61C341.404 119.61 342.55 118.464 342.55 117.05C342.55 115.636 341.404 114.49 339.99 114.49C338.576 114.49 337.43 115.636 337.43 117.05C337.43 118.464 338.576 119.61 339.99 119.61Z" fill="white"/>
<path opacity="0.64" d="M185.11 247.64C186.524 247.64 187.67 246.494 187.67 245.08C187.67 243.666 186.524 242.52 185.11 242.52C183.696 242.52 182.55 243.666 182.55 245.08C182.55 246.494 183.696 247.64 185.11 247.64Z" fill="white"/>
<path opacity="0.83" d="M344.64 190.27C346.413 190.27 347.85 188.833 347.85 187.06C347.85 185.287 346.413 183.85 344.64 183.85C342.867 183.85 341.43 185.287 341.43 187.06C341.43 188.833 342.867 190.27 344.64 190.27Z" fill="white"/>
<path opacity="0.83" d="M324.56 305.44C326.073 305.44 327.3 304.213 327.3 302.7C327.3 301.187 326.073 299.96 324.56 299.96C323.047 299.96 321.82 301.187 321.82 302.7C321.82 304.213 323.047 305.44 324.56 305.44Z" fill="white"/>
<path d="M271.33 186.89C273.688 186.89 275.6 184.978 275.6 182.62C275.6 180.262 273.688 178.35 271.33 178.35C268.972 178.35 267.06 180.262 267.06 182.62C267.06 184.978 268.972 186.89 271.33 186.89Z" fill="white"/>
<path d="M465.88 214.54V230.25C465.883 230.318 465.872 230.385 465.847 230.448C465.822 230.512 465.785 230.569 465.737 230.617C465.689 230.665 465.632 230.702 465.569 230.727C465.505 230.752 465.438 230.763 465.37 230.76H463.37C463.302 230.764 463.234 230.754 463.17 230.73C463.106 230.706 463.048 230.669 463 230.62C462.951 230.572 462.914 230.514 462.89 230.45C462.866 230.386 462.856 230.318 462.86 230.25V223.69H453.43V230.25C453.434 230.318 453.424 230.386 453.4 230.45C453.376 230.514 453.339 230.572 453.29 230.62C453.242 230.669 453.184 230.706 453.12 230.73C453.056 230.754 452.988 230.764 452.92 230.76H450.92C450.852 230.764 450.784 230.754 450.72 230.73C450.656 230.706 450.598 230.669 450.55 230.62C450.501 230.572 450.464 230.514 450.44 230.45C450.416 230.386 450.406 230.318 450.41 230.25V214.54C450.406 214.472 450.416 214.404 450.44 214.34C450.464 214.276 450.501 214.218 450.55 214.17C450.598 214.121 450.656 214.084 450.72 214.06C450.784 214.036 450.852 214.026 450.92 214.03H452.92C452.988 214.026 453.056 214.036 453.12 214.06C453.184 214.084 453.242 214.121 453.29 214.17C453.339 214.218 453.376 214.276 453.4 214.34C453.424 214.404 453.434 214.472 453.43 214.54V221.1H462.86V214.54C462.856 214.472 462.866 214.404 462.89 214.34C462.914 214.276 462.951 214.218 463 214.17C463.048 214.121 463.106 214.084 463.17 214.06C463.234 214.036 463.302 214.026 463.37 214.03H465.37C465.438 214.026 465.506 214.036 465.57 214.06C465.634 214.084 465.692 214.121 465.74 214.17C465.789 214.218 465.826 214.276 465.85 214.34C465.874 214.404 465.884 214.472 465.88 214.54V214.54Z" fill="#006099"/>
<path d="M485.58 214.54V230.25C485.584 230.318 485.574 230.386 485.55 230.45C485.526 230.514 485.489 230.572 485.44 230.62C485.392 230.669 485.334 230.706 485.27 230.73C485.206 230.754 485.138 230.764 485.07 230.76H483.19C483.123 230.761 483.056 230.749 482.993 230.724C482.931 230.699 482.874 230.661 482.826 230.614C482.779 230.566 482.741 230.509 482.716 230.447C482.691 230.384 482.679 230.317 482.68 230.25L482.54 228.37C481.881 229.249 481.024 229.96 480.039 230.447C479.054 230.933 477.969 231.181 476.87 231.17C472.13 231.17 468.71 227.31 468.71 222.43C468.71 217.55 472.13 213.69 476.87 213.69C477.976 213.684 479.069 213.937 480.06 214.428C481.052 214.92 481.915 215.636 482.58 216.52L482.68 214.52C482.677 214.452 482.688 214.385 482.713 214.322C482.738 214.258 482.775 214.201 482.823 214.153C482.871 214.105 482.928 214.068 482.992 214.043C483.055 214.018 483.122 214.007 483.19 214.01H485.07C485.14 214.005 485.21 214.016 485.276 214.041C485.341 214.066 485.4 214.106 485.449 214.156C485.497 214.207 485.534 214.267 485.557 214.333C485.58 214.4 485.587 214.47 485.58 214.54ZM482.64 222.39C482.685 221.64 482.577 220.888 482.321 220.182C482.065 219.475 481.667 218.828 481.152 218.281C480.637 217.734 480.015 217.298 479.325 217C478.635 216.702 477.892 216.548 477.14 216.548C476.388 216.548 475.645 216.702 474.955 217C474.265 217.298 473.643 217.734 473.128 218.281C472.613 218.828 472.215 219.475 471.959 220.182C471.703 220.888 471.595 221.64 471.64 222.39C471.64 225.81 473.99 228.39 477.17 228.39C477.925 228.362 478.668 228.184 479.353 227.866C480.039 227.547 480.654 227.096 481.164 226.537C481.673 225.979 482.066 225.324 482.319 224.612C482.573 223.9 482.682 223.145 482.64 222.39V222.39Z" fill="#006099"/>
<path d="M504.09 214.61L495.28 236.84C495.234 236.965 495.148 237.072 495.037 237.146C494.925 237.22 494.793 237.256 494.66 237.25H492.66C492.29 237.25 492.08 237.04 492.25 236.67L494.61 230.83L488.19 214.61C488.05 214.23 488.19 214.03 488.6 214.03H490.68C490.814 214.022 490.946 214.058 491.058 214.132C491.17 214.206 491.255 214.314 491.3 214.44L496.15 227.24L501 214.44C501.043 214.315 501.126 214.207 501.236 214.133C501.346 214.059 501.478 214.023 501.61 214.03H503.73C504.05 214 504.22 214.23 504.09 214.61Z" fill="#006099"/>
<path d="M521.81 214.54V230.25C521.814 230.318 521.804 230.386 521.78 230.45C521.756 230.514 521.719 230.572 521.67 230.62C521.622 230.669 521.564 230.706 521.5 230.73C521.436 230.754 521.368 230.764 521.3 230.76H519.3C519.232 230.764 519.164 230.754 519.1 230.73C519.036 230.706 518.978 230.669 518.93 230.62C518.881 230.572 518.844 230.514 518.82 230.45C518.796 230.386 518.786 230.318 518.79 230.25V223.62C518.038 224.52 517.097 225.244 516.034 225.739C514.972 226.235 513.813 226.492 512.64 226.49C509.64 226.49 506.19 225.02 506.19 219.97V214.54C506.186 214.472 506.196 214.404 506.22 214.34C506.244 214.276 506.281 214.218 506.33 214.17C506.378 214.121 506.436 214.084 506.5 214.06C506.564 214.036 506.632 214.026 506.7 214.03H508.75C508.818 214.026 508.886 214.036 508.95 214.06C509.014 214.084 509.072 214.121 509.12 214.17C509.169 214.218 509.206 214.276 509.23 214.34C509.254 214.404 509.264 214.472 509.26 214.54V219.87C509.26 222.74 510.8 223.96 513.26 223.96C514.375 223.916 515.462 223.6 516.428 223.041C517.393 222.482 518.207 221.695 518.8 220.75V214.54C518.796 214.472 518.806 214.404 518.83 214.34C518.854 214.276 518.891 214.218 518.94 214.17C518.988 214.121 519.046 214.084 519.11 214.06C519.174 214.036 519.242 214.026 519.31 214.03H521.31C521.377 214.027 521.445 214.038 521.507 214.063C521.57 214.088 521.627 214.125 521.674 214.173C521.721 214.222 521.757 214.279 521.781 214.342C521.804 214.405 521.814 214.473 521.81 214.54Z" fill="#006099"/>
<path d="M540.69 214.54V230.25C540.694 230.318 540.684 230.386 540.66 230.45C540.636 230.514 540.599 230.572 540.55 230.62C540.502 230.669 540.444 230.706 540.38 230.73C540.316 230.754 540.248 230.764 540.18 230.76H538.18C538.112 230.764 538.044 230.754 537.98 230.73C537.916 230.706 537.858 230.669 537.81 230.62C537.761 230.572 537.724 230.514 537.7 230.45C537.676 230.386 537.666 230.318 537.67 230.25V223.69H528.24V230.25C528.244 230.318 528.234 230.386 528.21 230.45C528.186 230.514 528.149 230.572 528.1 230.62C528.052 230.669 527.994 230.706 527.93 230.73C527.866 230.754 527.798 230.764 527.73 230.76H525.73C525.662 230.763 525.595 230.752 525.532 230.727C525.468 230.702 525.411 230.665 525.363 230.617C525.315 230.569 525.278 230.512 525.253 230.448C525.228 230.385 525.217 230.318 525.22 230.25V214.54C525.216 214.472 525.226 214.404 525.25 214.34C525.274 214.276 525.311 214.218 525.36 214.17C525.408 214.121 525.466 214.084 525.53 214.06C525.594 214.036 525.662 214.026 525.73 214.03H527.73C527.798 214.026 527.866 214.036 527.93 214.06C527.994 214.084 528.052 214.121 528.1 214.17C528.149 214.218 528.186 214.276 528.21 214.34C528.234 214.404 528.244 214.472 528.24 214.54V221.1H537.67V214.54C537.666 214.472 537.676 214.404 537.7 214.34C537.724 214.276 537.761 214.218 537.81 214.17C537.858 214.121 537.916 214.084 537.98 214.06C538.044 214.036 538.112 214.026 538.18 214.03H540.18C540.248 214.026 540.316 214.036 540.38 214.06C540.444 214.084 540.502 214.121 540.55 214.17C540.599 214.218 540.636 214.276 540.66 214.34C540.684 214.404 540.694 214.472 540.69 214.54V214.54Z" fill="#006099"/>
<path d="M559.44 225.19C559.44 228.71 556.91 230.76 552.3 230.76H544.55C544.482 230.764 544.414 230.754 544.35 230.73C544.286 230.706 544.228 230.669 544.18 230.62C544.131 230.572 544.094 230.514 544.07 230.45C544.046 230.386 544.036 230.318 544.04 230.25V214.54C544.036 214.472 544.046 214.404 544.07 214.34C544.094 214.276 544.131 214.218 544.18 214.17C544.228 214.121 544.286 214.084 544.35 214.06C544.414 214.036 544.482 214.026 544.55 214.03H546.6C546.668 214.026 546.736 214.036 546.8 214.06C546.864 214.084 546.922 214.121 546.97 214.17C547.019 214.218 547.056 214.276 547.08 214.34C547.104 214.404 547.114 214.472 547.11 214.54V219.63H552.3C556.91 219.63 559.44 221.64 559.44 225.19ZM556.5 225.19C556.5 223.19 555.24 222.19 552.37 222.19H547.11V228.27H552.37C555.24 228.23 556.5 227.17 556.5 225.19ZM565.69 214.54V230.25C565.693 230.318 565.682 230.385 565.657 230.448C565.632 230.512 565.595 230.569 565.547 230.617C565.499 230.665 565.442 230.702 565.379 230.727C565.315 230.752 565.248 230.763 565.18 230.76H563.18C563.111 230.764 563.043 230.754 562.978 230.73C562.914 230.706 562.856 230.669 562.806 230.621C562.757 230.573 562.719 230.515 562.694 230.451C562.669 230.387 562.657 230.319 562.66 230.25V214.54C562.657 214.471 562.669 214.403 562.694 214.339C562.719 214.275 562.757 214.217 562.806 214.169C562.856 214.121 562.914 214.084 562.978 214.06C563.043 214.036 563.111 214.026 563.18 214.03H565.18C565.248 214.026 565.316 214.036 565.38 214.06C565.444 214.084 565.502 214.121 565.55 214.17C565.599 214.218 565.636 214.276 565.66 214.34C565.684 214.404 565.694 214.472 565.69 214.54Z" fill="#006099"/>
<path d="M584.67 214.54V230.25C584.674 230.318 584.664 230.386 584.64 230.45C584.616 230.514 584.579 230.572 584.53 230.62C584.482 230.669 584.424 230.706 584.36 230.73C584.296 230.754 584.228 230.764 584.16 230.76H582.16C582.092 230.764 582.024 230.754 581.96 230.73C581.896 230.706 581.838 230.669 581.79 230.62C581.741 230.572 581.704 230.514 581.68 230.45C581.656 230.386 581.646 230.318 581.65 230.25V217.78L573 230.42C572.929 230.526 572.832 230.613 572.718 230.672C572.605 230.732 572.478 230.762 572.35 230.76H569.52C569.452 230.764 569.384 230.754 569.32 230.73C569.256 230.706 569.198 230.669 569.15 230.62C569.101 230.572 569.064 230.514 569.04 230.45C569.016 230.386 569.006 230.318 569.01 230.25V214.54C569.006 214.472 569.016 214.404 569.04 214.34C569.064 214.276 569.101 214.218 569.15 214.17C569.198 214.121 569.256 214.084 569.32 214.06C569.384 214.036 569.452 214.026 569.52 214.03H571.52C571.588 214.026 571.656 214.036 571.72 214.06C571.784 214.084 571.842 214.121 571.89 214.17C571.939 214.218 571.976 214.276 572 214.34C572.024 214.404 572.034 214.472 572.03 214.54V227.21L580.77 214.37C580.842 214.264 580.938 214.177 581.052 214.118C581.165 214.058 581.292 214.028 581.42 214.03H584.12C584.191 214.019 584.264 214.025 584.333 214.046C584.402 214.067 584.465 214.104 584.518 214.153C584.571 214.202 584.612 214.262 584.638 214.329C584.664 214.396 584.675 214.468 584.67 214.54ZM572.17 207.4C572.17 207.06 572.31 206.89 572.65 206.89H573.65C573.785 206.884 573.916 206.931 574.017 207.021C574.118 207.11 574.18 207.236 574.19 207.37C574.356 207.986 574.72 208.529 575.226 208.917C575.733 209.305 576.352 209.515 576.99 209.515C577.628 209.515 578.247 209.305 578.754 208.917C579.26 208.529 579.624 207.986 579.79 207.37C579.803 207.235 579.867 207.11 579.969 207.02C580.072 206.931 580.204 206.884 580.34 206.89H581.34C581.69 206.89 581.86 207.06 581.82 207.4C581.625 208.545 581.031 209.584 580.143 210.333C579.256 211.082 578.131 211.493 576.97 211.493C575.809 211.493 574.685 211.082 573.797 210.333C572.909 209.584 572.315 208.545 572.12 207.4H572.17Z" fill="#006099"/>
<path d="M617.49 214.54V230.25C617.493 230.318 617.482 230.385 617.457 230.448C617.432 230.512 617.395 230.569 617.347 230.617C617.299 230.665 617.242 230.702 617.178 230.727C617.115 230.752 617.048 230.763 616.98 230.76H614.93C614.861 230.764 614.793 230.754 614.728 230.73C614.664 230.706 614.606 230.669 614.556 230.621C614.507 230.573 614.469 230.515 614.444 230.451C614.419 230.387 614.407 230.319 614.41 230.25V219.12L609 230.38C608.95 230.492 608.869 230.588 608.766 230.655C608.663 230.723 608.543 230.759 608.42 230.76H606C605.876 230.762 605.755 230.726 605.652 230.659C605.549 230.591 605.468 230.494 605.42 230.38L599.99 219.18V230.25C599.993 230.319 599.981 230.387 599.956 230.451C599.931 230.515 599.893 230.573 599.844 230.621C599.795 230.669 599.736 230.706 599.672 230.73C599.607 230.754 599.539 230.764 599.47 230.76H597.47C597.402 230.763 597.335 230.752 597.272 230.727C597.208 230.702 597.151 230.665 597.103 230.617C597.055 230.569 597.018 230.512 596.993 230.448C596.968 230.385 596.957 230.318 596.96 230.25V214.54C596.956 214.472 596.966 214.404 596.99 214.34C597.014 214.276 597.051 214.218 597.1 214.17C597.148 214.121 597.206 214.084 597.27 214.06C597.334 214.036 597.402 214.026 597.47 214.03H600.31C600.432 214.029 600.552 214.063 600.655 214.129C600.758 214.195 600.84 214.289 600.89 214.4L607.27 227.45L613.66 214.4C613.71 214.289 613.792 214.195 613.895 214.129C613.998 214.063 614.118 214.029 614.24 214.03H617C617.067 214.028 617.133 214.041 617.194 214.066C617.256 214.092 617.311 214.129 617.357 214.177C617.403 214.225 617.439 214.282 617.462 214.345C617.485 214.407 617.494 214.474 617.49 214.54Z" fill="#006099"/>
<path d="M637.19 214.54V230.25C637.194 230.318 637.184 230.386 637.16 230.45C637.136 230.514 637.099 230.572 637.05 230.62C637.002 230.669 636.944 230.706 636.88 230.73C636.816 230.754 636.748 230.764 636.68 230.76H634.8C634.733 230.761 634.666 230.749 634.603 230.724C634.541 230.699 634.484 230.661 634.436 230.614C634.389 230.566 634.351 230.509 634.326 230.447C634.301 230.384 634.289 230.317 634.29 230.25L634.15 228.37C633.491 229.249 632.634 229.96 631.649 230.447C630.664 230.933 629.578 231.181 628.48 231.17C623.74 231.17 620.32 227.31 620.32 222.43C620.32 217.55 623.74 213.69 628.48 213.69C629.585 213.683 630.677 213.936 631.666 214.427C632.656 214.919 633.517 215.636 634.18 216.52L634.29 214.52C634.287 214.452 634.298 214.385 634.323 214.322C634.348 214.258 634.385 214.201 634.433 214.153C634.481 214.105 634.538 214.068 634.602 214.043C634.665 214.018 634.732 214.007 634.8 214.01H636.68C636.75 214.005 636.82 214.016 636.885 214.041C636.951 214.066 637.01 214.106 637.059 214.156C637.107 214.207 637.144 214.267 637.167 214.333C637.19 214.4 637.197 214.47 637.19 214.54V214.54ZM634.25 222.39C634.295 221.64 634.187 220.888 633.931 220.182C633.675 219.475 633.277 218.828 632.762 218.281C632.247 217.734 631.625 217.298 630.935 217C630.245 216.702 629.502 216.548 628.75 216.548C627.998 216.548 627.255 216.702 626.565 217C625.875 217.298 625.253 217.734 624.738 218.281C624.223 218.828 623.825 219.475 623.569 220.182C623.313 220.888 623.205 221.64 623.25 222.39C623.25 225.81 625.6 228.39 628.78 228.39C629.535 228.362 630.278 228.184 630.963 227.866C631.649 227.547 632.264 227.096 632.774 226.537C633.283 225.979 633.676 225.324 633.929 224.612C634.183 223.9 634.292 223.145 634.25 222.39V222.39Z" fill="#006099"/>
<path d="M651.7 214.54V216.08C651.704 216.148 651.694 216.216 651.67 216.28C651.646 216.344 651.609 216.402 651.56 216.45C651.512 216.499 651.454 216.536 651.39 216.56C651.326 216.584 651.258 216.594 651.19 216.59H643.61V230.25C643.613 230.318 643.602 230.385 643.577 230.448C643.552 230.512 643.515 230.569 643.467 230.617C643.419 230.665 643.362 230.702 643.298 230.727C643.235 230.752 643.168 230.763 643.1 230.76H641.05C640.981 230.764 640.913 230.754 640.848 230.73C640.784 230.706 640.726 230.669 640.676 230.621C640.627 230.573 640.589 230.515 640.564 230.451C640.539 230.387 640.527 230.319 640.53 230.25V214.54C640.527 214.471 640.539 214.403 640.564 214.339C640.589 214.275 640.627 214.217 640.676 214.169C640.726 214.121 640.784 214.084 640.848 214.06C640.913 214.036 640.981 214.026 641.05 214.03H651.19C651.258 214.026 651.326 214.036 651.39 214.06C651.454 214.084 651.512 214.121 651.56 214.17C651.609 214.218 651.646 214.276 651.67 214.34C651.694 214.404 651.704 214.472 651.7 214.54Z" fill="#006099"/>
<path d="M669 214.54V230.25C669.004 230.318 668.994 230.386 668.97 230.45C668.946 230.514 668.909 230.572 668.86 230.62C668.812 230.669 668.754 230.706 668.69 230.73C668.626 230.754 668.558 230.764 668.49 230.76H666.61C666.543 230.761 666.476 230.749 666.413 230.724C666.351 230.699 666.294 230.661 666.246 230.614C666.199 230.566 666.161 230.509 666.136 230.447C666.111 230.384 666.099 230.317 666.1 230.25L665.96 228.37C665.301 229.249 664.444 229.96 663.459 230.447C662.474 230.933 661.388 231.181 660.29 231.17C655.55 231.17 652.13 227.31 652.13 222.43C652.13 217.55 655.55 213.69 660.29 213.69C661.395 213.683 662.487 213.936 663.476 214.427C664.466 214.919 665.327 215.636 665.99 216.52L666.1 214.52C666.097 214.452 666.108 214.385 666.133 214.322C666.158 214.258 666.195 214.201 666.243 214.153C666.291 214.105 666.348 214.068 666.412 214.043C666.475 214.018 666.542 214.007 666.61 214.01H668.49C668.56 214.005 668.63 214.016 668.695 214.041C668.761 214.066 668.82 214.106 668.869 214.156C668.917 214.207 668.954 214.267 668.977 214.333C669 214.4 669.007 214.47 669 214.54ZM666 222.39C666.045 221.64 665.937 220.888 665.681 220.182C665.425 219.475 665.027 218.828 664.512 218.281C663.997 217.734 663.375 217.298 662.685 217C661.995 216.702 661.252 216.548 660.5 216.548C659.748 216.548 659.005 216.702 658.315 217C657.625 217.298 657.003 217.734 656.488 218.281C655.973 218.828 655.575 219.475 655.319 220.182C655.063 220.888 654.955 221.64 655 222.39C655 225.81 657.35 228.39 660.53 228.39C661.285 228.362 662.028 228.184 662.713 227.866C663.399 227.547 664.014 227.096 664.524 226.537C665.033 225.979 665.426 225.324 665.679 224.612C665.933 223.9 666.042 223.145 666 222.39V222.39Z" fill="#006099"/>
<path d="M683.29 225.88C683.29 228.88 680.76 231.03 677.29 231.03C676.308 231.089 675.326 230.926 674.415 230.554C673.505 230.182 672.69 229.61 672.03 228.88C671.957 228.816 671.9 228.736 671.863 228.646C671.826 228.556 671.81 228.459 671.817 228.363C671.824 228.266 671.853 228.172 671.902 228.088C671.951 228.004 672.019 227.933 672.1 227.88L673 227C673.27 226.72 673.58 226.79 673.92 227.1C674.355 227.519 674.869 227.846 675.432 228.063C675.996 228.279 676.597 228.38 677.2 228.36C679.04 228.36 680.48 227.27 680.48 225.67C680.48 224.07 679 223 676.63 223C676.529 223.011 676.426 223.001 676.329 222.971C676.232 222.94 676.142 222.89 676.065 222.824C675.988 222.757 675.926 222.675 675.882 222.584C675.838 222.492 675.814 222.392 675.81 222.29V221.47C675.805 221.362 675.824 221.255 675.864 221.155C675.904 221.055 675.964 220.965 676.042 220.89C676.12 220.816 676.212 220.758 676.313 220.722C676.415 220.686 676.523 220.671 676.63 220.68C678.63 220.68 679.84 219.68 679.84 218.43C679.84 217.18 678.71 216.38 677.21 216.38C676.143 216.405 675.117 216.801 674.31 217.5C674.243 217.573 674.161 217.632 674.069 217.672C673.978 217.712 673.88 217.733 673.78 217.733C673.68 217.733 673.582 217.712 673.491 217.672C673.399 217.632 673.317 217.573 673.25 217.5L672.53 216.75C672.458 216.697 672.399 216.628 672.358 216.548C672.318 216.468 672.297 216.38 672.297 216.29C672.297 216.2 672.318 216.112 672.358 216.032C672.399 215.952 672.458 215.883 672.53 215.83C673.139 215.151 673.888 214.612 674.725 214.251C675.563 213.89 676.468 213.716 677.38 213.74C680.38 213.74 682.67 215.62 682.67 218.22C682.626 218.928 682.406 219.614 682.031 220.217C681.655 220.819 681.136 221.318 680.52 221.67C681.341 222.027 682.039 222.615 682.531 223.363C683.023 224.111 683.287 224.985 683.29 225.88V225.88Z" fill="#006099"/>
<path d="M701.83 214.54V230.25C701.833 230.318 701.822 230.385 701.797 230.448C701.772 230.512 701.735 230.569 701.687 230.617C701.639 230.665 701.582 230.702 701.518 230.727C701.455 230.752 701.388 230.763 701.32 230.76H699.27C699.201 230.764 699.133 230.754 699.068 230.73C699.004 230.706 698.945 230.669 698.896 230.621C698.847 230.573 698.809 230.515 698.784 230.451C698.759 230.387 698.747 230.319 698.75 230.25V217.78L690.15 230.42C690.077 230.524 689.979 230.61 689.866 230.669C689.753 230.728 689.628 230.759 689.5 230.76H686.67C686.601 230.764 686.533 230.754 686.468 230.73C686.404 230.706 686.345 230.669 686.296 230.621C686.247 230.573 686.209 230.515 686.184 230.451C686.159 230.387 686.147 230.319 686.15 230.25V214.54C686.147 214.471 686.159 214.403 686.184 214.339C686.209 214.275 686.247 214.217 686.296 214.169C686.345 214.121 686.404 214.084 686.468 214.06C686.533 214.036 686.601 214.026 686.67 214.03H688.67C688.739 214.026 688.807 214.036 688.872 214.06C688.936 214.084 688.995 214.121 689.044 214.169C689.093 214.217 689.131 214.275 689.156 214.339C689.181 214.403 689.193 214.471 689.19 214.54V227.21L698 214.37C698.071 214.263 698.168 214.176 698.281 214.116C698.395 214.057 698.522 214.027 698.65 214.03H701.35C701.416 214.03 701.481 214.043 701.541 214.069C701.601 214.095 701.656 214.133 701.701 214.181C701.746 214.229 701.78 214.285 701.802 214.347C701.825 214.409 701.834 214.474 701.83 214.54Z" fill="#006099"/>
<path d="M720.71 214.54V230.25C720.714 230.318 720.704 230.386 720.68 230.45C720.656 230.514 720.619 230.572 720.57 230.62C720.522 230.669 720.464 230.706 720.4 230.73C720.336 230.754 720.268 230.764 720.2 230.76H718.15C718.082 230.764 718.014 230.754 717.95 230.73C717.886 230.706 717.828 230.669 717.78 230.62C717.731 230.572 717.694 230.514 717.67 230.45C717.646 230.386 717.636 230.318 717.64 230.25V223.69H708.21V230.25C708.214 230.318 708.204 230.386 708.18 230.45C708.156 230.514 708.119 230.572 708.07 230.62C708.022 230.669 707.964 230.706 707.9 230.73C707.836 230.754 707.768 230.764 707.7 230.76H705.65C705.582 230.764 705.514 230.754 705.45 230.73C705.386 230.706 705.328 230.669 705.28 230.62C705.231 230.572 705.194 230.514 705.17 230.45C705.146 230.386 705.136 230.318 705.14 230.25V214.54C705.136 214.472 705.146 214.404 705.17 214.34C705.194 214.276 705.231 214.218 705.28 214.17C705.328 214.121 705.386 214.084 705.45 214.06C705.514 214.036 705.582 214.026 705.65 214.03H707.7C707.768 214.026 707.836 214.036 707.9 214.06C707.964 214.084 708.022 214.121 708.07 214.17C708.119 214.218 708.156 214.276 708.18 214.34C708.204 214.404 708.214 214.472 708.21 214.54V221.1H717.64V214.54C717.636 214.472 717.646 214.404 717.67 214.34C717.694 214.276 717.731 214.218 717.78 214.17C717.828 214.121 717.886 214.084 717.95 214.06C718.014 214.036 718.082 214.026 718.15 214.03H720.2C720.268 214.026 720.336 214.036 720.4 214.06C720.464 214.084 720.522 214.121 720.57 214.17C720.619 214.218 720.656 214.276 720.68 214.34C720.704 214.404 720.714 214.472 720.71 214.54V214.54Z" fill="#006099"/>
<path d="M482.42 140.12V179C482.427 179.116 482.41 179.233 482.369 179.341C482.328 179.45 482.264 179.549 482.181 179.631C482.099 179.714 482 179.778 481.891 179.819C481.783 179.86 481.666 179.877 481.55 179.87H474.3C474.184 179.877 474.067 179.86 473.959 179.819C473.85 179.778 473.751 179.714 473.668 179.631C473.586 179.549 473.522 179.45 473.481 179.341C473.44 179.233 473.423 179.116 473.43 179V163.9H459.28V179C459.287 179.116 459.27 179.233 459.229 179.341C459.188 179.45 459.124 179.549 459.041 179.631C458.959 179.714 458.86 179.778 458.751 179.819C458.643 179.86 458.526 179.877 458.41 179.87H451.16C451.044 179.877 450.927 179.86 450.819 179.819C450.71 179.778 450.611 179.714 450.529 179.631C450.446 179.549 450.382 179.45 450.341 179.341C450.3 179.233 450.283 179.116 450.29 179V140.12C450.283 140.004 450.3 139.887 450.341 139.779C450.382 139.67 450.446 139.571 450.529 139.489C450.611 139.406 450.71 139.342 450.819 139.301C450.927 139.26 451.044 139.243 451.16 139.25H458.41C458.526 139.243 458.643 139.26 458.751 139.301C458.86 139.342 458.959 139.406 459.041 139.489C459.124 139.571 459.188 139.67 459.229 139.779C459.27 139.887 459.287 140.004 459.28 140.12V156H473.43V140.12C473.423 140.004 473.44 139.887 473.481 139.779C473.522 139.67 473.586 139.571 473.668 139.489C473.751 139.406 473.85 139.342 473.959 139.301C474.067 139.26 474.184 139.243 474.3 139.25H481.55C481.666 139.243 481.783 139.26 481.891 139.301C482 139.342 482.099 139.406 482.181 139.489C482.264 139.571 482.328 139.67 482.369 139.779C482.41 139.887 482.427 140.004 482.42 140.12V140.12Z" fill="#006099"/>
<path d="M487.52 159.73C487.514 155.592 488.736 151.545 491.032 148.102C493.327 144.659 496.592 141.974 500.414 140.387C504.236 138.801 508.443 138.384 512.502 139.19C516.561 139.996 520.289 141.988 523.216 144.914C526.142 147.841 528.134 151.569 528.94 155.628C529.746 159.687 529.329 163.894 527.743 167.716C526.156 171.538 523.472 174.803 520.028 177.099C516.585 179.394 512.538 180.616 508.4 180.61C502.862 180.61 497.551 178.41 493.636 174.494C489.72 170.579 487.52 165.268 487.52 159.73ZM520.29 159.73C520.239 157.397 519.501 155.132 518.168 153.216C516.836 151.301 514.968 149.822 512.798 148.963C510.629 148.104 508.254 147.904 505.972 148.388C503.69 148.872 501.601 150.019 499.967 151.684C498.333 153.35 497.226 155.461 496.786 157.752C496.346 160.043 496.591 162.413 497.491 164.566C498.391 166.719 499.907 168.558 501.847 169.853C503.787 171.149 506.067 171.844 508.4 171.85C509.98 171.846 511.543 171.528 512.999 170.915C514.455 170.302 515.774 169.405 516.881 168.278C517.987 167.15 518.858 165.813 519.444 164.346C520.029 162.879 520.317 161.31 520.29 159.73V159.73Z" fill="#006099"/>
<path d="M569.36 140.12V179C569.367 179.116 569.35 179.233 569.309 179.341C569.268 179.45 569.204 179.549 569.121 179.631C569.039 179.714 568.94 179.778 568.831 179.819C568.723 179.86 568.606 179.877 568.49 179.87H561.24C561.124 179.877 561.007 179.86 560.899 179.819C560.79 179.778 560.691 179.714 560.609 179.631C560.526 179.549 560.462 179.45 560.421 179.341C560.38 179.233 560.363 179.116 560.37 179V147.2H546.28V168C546.28 176 540.88 180.12 533.69 180.12C533.54 180.13 533.392 180.091 533.267 180.007C533.142 179.924 533.048 179.802 533 179.66L530.79 172.58C530.757 172.512 530.743 172.437 530.748 172.361C530.753 172.286 530.777 172.213 530.818 172.15C530.859 172.087 530.916 172.035 530.983 172C531.05 171.965 531.125 171.948 531.2 171.95C533.92 171.95 537.2 170.32 537.2 166.26V140.12C537.193 140.004 537.21 139.887 537.251 139.779C537.292 139.67 537.356 139.571 537.439 139.489C537.521 139.406 537.62 139.342 537.729 139.301C537.837 139.26 537.954 139.243 538.07 139.25H568.46C568.579 139.238 568.698 139.252 568.811 139.291C568.923 139.33 569.026 139.394 569.112 139.476C569.197 139.559 569.264 139.66 569.307 139.771C569.35 139.882 569.368 140.001 569.36 140.12Z" fill="#006099"/>
<path d="M576.5 179.85C576.384 179.857 576.267 179.84 576.159 179.799C576.05 179.758 575.951 179.694 575.869 179.611C575.786 179.529 575.722 179.43 575.681 179.321C575.64 179.213 575.623 179.096 575.63 178.98V140.12C575.623 140.004 575.64 139.887 575.681 139.779C575.722 139.67 575.786 139.571 575.869 139.489C575.951 139.406 576.05 139.342 576.159 139.301C576.267 139.26 576.384 139.243 576.5 139.25H583.75C583.866 139.243 583.983 139.26 584.091 139.301C584.2 139.342 584.299 139.406 584.381 139.489C584.464 139.571 584.528 139.67 584.569 139.779C584.61 139.887 584.627 140.004 584.62 140.12V152.94H588.85C598.59 152.94 603.93 158.51 603.93 166.4C603.93 174.29 598.59 179.85 588.85 179.85H576.5ZM584.62 160.85V171.85H588.62C591.81 171.85 595.29 170.63 595.29 166.34C595.29 162.05 591.81 160.83 588.62 160.83L584.62 160.85Z" fill="#006099"/>
<path d="M656.48 179.85H647.89C647.692 179.862 647.494 179.819 647.318 179.728C647.142 179.636 646.994 179.499 646.89 179.33L635.6 163.61L632.52 167.15V179C632.527 179.116 632.51 179.233 632.469 179.341C632.428 179.45 632.364 179.549 632.281 179.631C632.199 179.714 632.1 179.778 631.991 179.819C631.882 179.86 631.766 179.877 631.65 179.87H624.4C624.284 179.877 624.167 179.86 624.059 179.819C623.95 179.778 623.851 179.714 623.769 179.631C623.686 179.549 623.622 179.45 623.581 179.341C623.54 179.233 623.523 179.116 623.53 179V140.12C623.523 140.004 623.54 139.887 623.581 139.779C623.622 139.67 623.686 139.571 623.769 139.489C623.851 139.406 623.95 139.342 624.059 139.301C624.167 139.26 624.284 139.243 624.4 139.25H631.65C631.766 139.243 631.882 139.26 631.991 139.301C632.1 139.342 632.199 139.406 632.281 139.489C632.364 139.571 632.428 139.67 632.469 139.779C632.51 139.887 632.527 140.004 632.52 140.12V155.2L645.22 139.72C645.34 139.571 645.493 139.452 645.666 139.371C645.839 139.289 646.029 139.248 646.22 139.25H655.27C656.02 139.25 656.14 139.78 655.73 140.3L641.52 156.71L657 178.81C657.4 179.39 657.17 179.85 656.48 179.85Z" fill="#006099"/>
<path d="M685 172.78V179C685.007 179.116 684.99 179.233 684.949 179.341C684.908 179.45 684.844 179.549 684.761 179.631C684.679 179.714 684.58 179.778 684.471 179.819C684.363 179.86 684.246 179.877 684.13 179.87H662.33C662.214 179.877 662.097 179.86 661.989 179.819C661.88 179.778 661.781 179.714 661.699 179.631C661.616 179.549 661.552 179.45 661.511 179.341C661.47 179.233 661.453 179.116 661.46 179V140.12C661.453 140.004 661.47 139.887 661.511 139.779C661.552 139.67 661.616 139.571 661.699 139.489C661.781 139.406 661.88 139.342 661.989 139.301C662.097 139.26 662.214 139.243 662.33 139.25H684.08C684.196 139.243 684.312 139.26 684.421 139.301C684.53 139.342 684.629 139.406 684.711 139.489C684.794 139.571 684.858 139.67 684.899 139.779C684.94 139.887 684.957 140.004 684.95 140.12V146.33C684.957 146.446 684.94 146.563 684.899 146.671C684.858 146.78 684.794 146.879 684.711 146.961C684.629 147.044 684.53 147.108 684.421 147.149C684.312 147.19 684.196 147.207 684.08 147.2H670.46V155.15H683.27C683.386 155.143 683.502 155.16 683.611 155.201C683.72 155.242 683.819 155.306 683.901 155.389C683.984 155.471 684.048 155.57 684.089 155.679C684.13 155.787 684.147 155.904 684.14 156.02V162.22C684.147 162.336 684.13 162.453 684.089 162.561C684.048 162.67 683.984 162.769 683.901 162.851C683.819 162.934 683.72 162.998 683.611 163.039C683.502 163.08 683.386 163.097 683.27 163.09H670.46V171.91H684.14C684.255 171.904 684.371 171.923 684.478 171.965C684.586 172.006 684.684 172.07 684.765 172.152C684.846 172.235 684.909 172.333 684.949 172.441C684.99 172.549 685.007 172.665 685 172.78V172.78Z" fill="#006099"/>
<path d="M727.12 140.12V179C727.127 179.116 727.11 179.233 727.069 179.341C727.028 179.45 726.964 179.549 726.881 179.631C726.799 179.714 726.7 179.778 726.591 179.819C726.483 179.86 726.366 179.877 726.25 179.87H719C718.884 179.877 718.767 179.86 718.659 179.819C718.55 179.778 718.451 179.714 718.369 179.631C718.286 179.549 718.222 179.45 718.181 179.341C718.14 179.233 718.123 179.116 718.13 179V147.2H704V168C704 176 698.6 180.12 691.41 180.12C691.259 180.129 691.11 180.089 690.984 180.006C690.857 179.923 690.761 179.802 690.71 179.66L688.51 172.58C688.484 172.508 688.478 172.43 688.492 172.354C688.506 172.279 688.539 172.208 688.589 172.15C688.638 172.091 688.702 172.046 688.774 172.02C688.847 171.994 688.924 171.987 689 172C691.72 172 695 170.37 695 166.31V140.12C694.993 140.004 695.01 139.887 695.051 139.779C695.092 139.67 695.156 139.571 695.239 139.489C695.321 139.406 695.42 139.342 695.529 139.301C695.637 139.26 695.754 139.243 695.87 139.25H726.26C726.375 139.244 726.491 139.263 726.598 139.305C726.706 139.346 726.804 139.41 726.885 139.493C726.966 139.575 727.029 139.673 727.069 139.781C727.11 139.889 727.127 140.005 727.12 140.12V140.12Z" fill="#006099"/>
<path d="M734.25 179.85C734.134 179.857 734.017 179.84 733.909 179.799C733.8 179.758 733.701 179.694 733.619 179.611C733.536 179.529 733.472 179.43 733.431 179.321C733.39 179.213 733.373 179.096 733.38 178.98V140.12C733.373 140.004 733.39 139.887 733.431 139.779C733.472 139.67 733.536 139.571 733.619 139.489C733.701 139.406 733.8 139.342 733.909 139.301C734.017 139.26 734.134 139.243 734.25 139.25H741.5C741.617 139.243 741.733 139.26 741.843 139.301C741.952 139.342 742.051 139.406 742.135 139.488C742.218 139.57 742.282 139.669 742.325 139.778C742.367 139.887 742.386 140.003 742.38 140.12V152.94H746.61C756.35 152.94 761.69 158.51 761.69 166.4C761.69 174.29 756.35 179.85 746.61 179.85H734.25ZM742.38 160.85V171.85H746.38C749.57 171.85 753.05 170.63 753.05 166.34C753.05 162.05 749.57 160.83 746.38 160.83L742.38 160.85Z" fill="#006099"/>
<path d="M796.49 168.14C796.49 175.85 791.67 179.85 781.35 179.85H767.08C766.964 179.857 766.848 179.84 766.739 179.799C766.63 179.758 766.531 179.694 766.449 179.611C766.366 179.529 766.302 179.43 766.261 179.321C766.22 179.213 766.203 179.096 766.21 178.98V140.12C766.203 140.004 766.22 139.887 766.261 139.779C766.302 139.67 766.366 139.571 766.449 139.489C766.531 139.406 766.63 139.342 766.739 139.301C766.848 139.26 766.964 139.243 767.08 139.25H781.29C789.29 139.25 793.47 143.95 793.47 149.75C793.47 153.99 791.15 157.06 788.54 158.16C790.779 158.717 792.772 159.996 794.209 161.801C795.646 163.605 796.448 165.833 796.49 168.14V168.14ZM780.49 147.2H775.21V155H780.49C783.22 155 785.07 153.78 785.07 150.94C785.07 148.1 783.15 147.2 780.48 147.2H780.49ZM787.49 167.04C787.49 163.67 785.05 162.4 781.69 162.4H775.19V171.91H781.69C785.18 171.91 787.5 170.34 787.5 167L787.49 167.04Z" fill="#006099"/>
<path d="M834.42 140.12V179C834.427 179.116 834.41 179.233 834.369 179.341C834.328 179.45 834.264 179.549 834.181 179.631C834.099 179.714 834 179.778 833.891 179.819C833.783 179.86 833.666 179.877 833.55 179.87H826.3C826.184 179.877 826.068 179.86 825.959 179.819C825.85 179.778 825.751 179.714 825.669 179.631C825.586 179.549 825.522 179.45 825.481 179.341C825.44 179.233 825.423 179.116 825.43 179V153.7L811.16 179.27C811.065 179.451 810.92 179.601 810.743 179.704C810.566 179.806 810.364 179.857 810.16 179.85H801.92C801.804 179.857 801.688 179.84 801.579 179.799C801.47 179.758 801.371 179.694 801.289 179.611C801.206 179.529 801.142 179.43 801.101 179.321C801.06 179.213 801.043 179.096 801.05 178.98V140.12C801.043 140.004 801.06 139.887 801.101 139.779C801.142 139.67 801.206 139.571 801.289 139.489C801.371 139.406 801.47 139.342 801.579 139.301C801.688 139.26 801.804 139.243 801.92 139.25H809.17C809.286 139.243 809.403 139.26 809.511 139.301C809.62 139.342 809.719 139.406 809.802 139.489C809.884 139.571 809.948 139.67 809.989 139.779C810.03 139.887 810.047 140.004 810.04 140.12V165.47L824.37 139.83C824.467 139.651 824.612 139.502 824.789 139.4C824.965 139.297 825.166 139.245 825.37 139.25H833.55C833.666 139.243 833.783 139.26 833.891 139.301C834 139.342 834.099 139.406 834.181 139.489C834.264 139.571 834.328 139.67 834.369 139.779C834.41 139.887 834.427 140.004 834.42 140.12V140.12Z" fill="#006099"/>
<path d="M872.82 140.12V179C872.827 179.116 872.81 179.233 872.769 179.341C872.728 179.45 872.664 179.549 872.581 179.631C872.499 179.714 872.4 179.778 872.291 179.819C872.183 179.86 872.066 179.877 871.95 179.87H864.7C864.584 179.877 864.468 179.86 864.359 179.819C864.25 179.778 864.151 179.714 864.069 179.631C863.986 179.549 863.922 179.45 863.881 179.341C863.84 179.233 863.823 179.116 863.83 179V163.9H849.67V179C849.677 179.116 849.66 179.233 849.619 179.341C849.578 179.45 849.514 179.549 849.431 179.631C849.349 179.714 849.25 179.778 849.141 179.819C849.033 179.86 848.916 179.877 848.8 179.87H841.55C841.434 179.877 841.318 179.86 841.209 179.819C841.1 179.778 841.001 179.714 840.919 179.631C840.836 179.549 840.772 179.45 840.731 179.341C840.69 179.233 840.673 179.116 840.68 179V140.12C840.673 140.004 840.69 139.887 840.731 139.779C840.772 139.67 840.836 139.571 840.919 139.489C841.001 139.406 841.1 139.342 841.209 139.301C841.318 139.26 841.434 139.243 841.55 139.25H848.8C848.916 139.243 849.033 139.26 849.141 139.301C849.25 139.342 849.349 139.406 849.431 139.489C849.514 139.571 849.578 139.67 849.619 139.779C849.66 139.887 849.677 140.004 849.67 140.12V156H863.83V140.12C863.823 140.004 863.84 139.887 863.881 139.779C863.922 139.67 863.986 139.571 864.069 139.489C864.151 139.406 864.25 139.342 864.359 139.301C864.468 139.26 864.584 139.243 864.7 139.25H872C872.112 139.25 872.223 139.273 872.326 139.317C872.429 139.361 872.521 139.426 872.598 139.508C872.675 139.589 872.734 139.686 872.773 139.791C872.811 139.896 872.827 140.008 872.82 140.12V140.12Z" fill="#006099"/>
</svg>
