<svg width="312" height="311" fill="none" xmlns="http://www.w3.org/2000/svg">
  <path d="M9 203c11.9513 26.963 30.4848 50.509 53.9075 68.489C111.134 308.309 163.897 308.456 180 307.885" stroke="#E1E1E1" stroke-width="5.7" stroke-miterlimit="10" stroke-linecap="round"/>
  <path d="M170 55.9117C170 79.5608 146.499 93 146.499 93c-11.391-7.1681-25.426-17.8917-25.426-18.9845V60.087c-6.993 2.789-23.747 5.5698-23.747 5.5698s-2.7923-2.7808-12.5777-5.5698c-5.453-1.6264-11.0905-2.5607-16.7785-2.7808 0 0 0-1.3945-8.3852-12.534-1.6377-2.1855-3.5702-4.5341-5.5846-6.8908C76.1359 18.8663 103.195 6.43276 132.087 2c0 0 37.913 30.2463 37.913 53.9117z" fill="#006099"/>
  <path d="M264.588 92.0236c-3.224 33.8474-24.253 55.1994-31.872 62.9634-7.382 7.488-14.099 13.221-29.297 21.858-29.403 16.704-71.412 23.652-88.217 82.155-2.46-7.683-8.079-28.415 0-51.521 3.379-9.588 8.568-18.446 15.288-26.099 1.534-1.705 8.883-9.909 18.306-15.382 4.429-2.577 8.792-5.285 13.238-7.846.549-.318 2.345-1.387 4.667-2.936 0 0 1.066-.718 2.14-1.501 12.787-9.347 16.723-14.77 16.723-14.77 4.195-5.91 6.967-12.699 8.104-19.844.16-1.486.434-2.959.82-4.404.657-2.443 1.633-4.79 2.903-6.981l-4.101-.473-4.994-.098-3.109.073c-1.394 0-15.403-1.395-15.403-1.395s-4.199-2.781-15.402-8.3512c-2.321-1.1582-5.135-2.7975-8.136-4.6816 0 0 23.538-13.4246 23.538-37.0931 0-23.6686-37.998-53.87813-37.998-53.87813C139.727.60894 147.75.00093 155.784.0002c33.652-.05315 66.421 10.7059 93.425 30.6745 5.233 8.1559 18.266 31.0659 15.379 61.3489z" fill="#817AF3"/>
  <path d="M311 136.784c-12.422 43.127-39.329 51.607-67.327 62.748-27.998 11.141-81.117 18.119-99.323 30.655C126.143 242.724 121.997 272 121.997 272c-3.413-3.482-5.829-7.811-6.997-12.536 16.789-58.528 58.757-65.498 88.131-82.214 14.797-8.423 21.565-14.087 29.267-21.873 7.194-7.272 23.475-24.134 29.637-49.958 8.685-36.4261-8.481-66.7633-13.11-74.419 16.986 12.5393 31.244 28.3782 41.913 46.5598C301.507 95.7414 308.366 115.889 311 136.784z" fill="#00E0FF"/>
  <path d="M312 155.666c.034 28.893-7.943 57.228-23.041 81.845-52.367 42.709-105.494 17.502-132.037 24.494C130.379 268.998 140.156 290 140.156 290 130.338 284.401 122 271.801 122 271.801s4.189-29.388 22.346-41.988c18.156-12.599 71.251-19.592 99.185-30.79 27.934-11.198 54.821-19.674 67.233-63.023.819 6.523 1.232 13.091 1.236 19.666z" fill="#817AF3"/>
  <path d="M289 238c-11.72 19.015-27.441 35.293-46.088 47.72-18.647 12.427-39.778 20.709-61.949 24.28-27.978-6.1-40.197-20.136-40.197-20.136s-9.783-20.718 16.703-27.627C183.955 255.329 236.828 280.173 289 238z" fill="#006099"/>
  <path d="M183.615 111.671c.424-1.482.896-2.874 1.385-4.192-5.684-.116-11.313-1.136-16.679-3.022-4.481-1.596-8.237-3.651-13.925-6.7629-3.316-1.8178-5.874-3.2752-8.083-4.7-11.333-7.1972-25.299-17.9645-25.299-19.0617V59.9473c-6.958 2.8003-23.629 5.5924-23.629 5.5924s-2.7785-2.7921-12.5153-5.5924c-5.426-1.6331-11.0354-2.5712-16.6952-2.7921 0 0 0-1.4002-8.3435-12.585-1.6296-2.1944-3.5525-4.5526-5.5569-6.9189C46.0528 27.9321 36.1775 18 36.1775 18s-5.5651 9.8256-6.9503 18.1774c-1.3851 8.3518-2.7865 13.977-2.7865 13.977s-2.7785-1.4002-2.7785-4.1923c0-2.7921-2.7866 4.1923-2.7866 4.1923s-1.3933 18.1774-2.7785 26.5619c-1.3851 8.3846-1.7436 9.8257-1.7436 9.8257C6.85358 105.734 1.36425 126.677.2236 148.081-.91706 169.486 2.31513 190.898 9.72104 211c4.47876-10.374 10.08606-20.219 16.71966-29.354 11.1301-15.377 23.629-22.37 38.9554-29.354 10.8983-4.805 22.0506-9.007 33.4066-12.585l-5.6139-1.441c-5.5651-1.4-12.5153-5.593-12.5153-5.593 17.5802 1.432 35.2245 1.899 52.8555 1.4 0 0 19.441-.589 36.772-5.608 3.35-.989 6.619-2.238 9.778-3.734.611-.295 1.1-.549 1.409-.712.261-4.182.974-8.322 2.127-12.348zM47.2668 61.9779c-.7088.4667-1.9555-1.6867-3.9762-1.4902-2.3792.2292-4.0739 3.5454-5.1902 6.7797.0815-.6141.2444-1.8997.4318-3.5209 1.2059-10.8655 1.157-20.7157 1.6296-20.7239 0 0 .0652.0491.1467.1474.2231.2645.3796.579.4563.9171.2688 1.0808 8.4005 16.638 6.502 17.8908zm69.5752 39.9081c.034.557-.05 1.115-.244 1.638-.383.86-1.369 1.719-3.936 2.571-4.171 1.4-11.122 0-11.122 0l2.241-2.743c1.157-1.056 2.746-2.456 4.71-4.2332 1.039-.8932 2.16-1.6855 3.348-2.3664 1.785-1.0235 2.6-1.1545 3.137-.8188.22.1229.375.303.644.8762.783 1.578 1.201 3.3132 1.222 5.0762z" fill="#E1E1E1"/>
  <path d="M53.9936 60.4177c-.3575 2.3708-3.2501 2.2237-9.6446 6.9653-4.7938 3.5644-6.5001 6.1397-7.7352 5.5265-1.0644-.5314-.4875-2.7632-.1706-8.0199.3169-5.2567.3088-12.5981 1.9744-20.7489.1544-.7766.4063-1.9457 1.1132-2.1337 1.3894-.3924 14.8041 15.8764 14.4628 18.4107zM116.674 101.607c-.065 1.032-.522 2.005-1.285 2.735-.763.73-1.778 1.167-2.853 1.227-3.646.575-7.366.575-11.012 0l-.524-.387c1.304-2.505 2.93-4.845 4.84-6.9638 1.614-1.7643 2.42-2.2673 3.187-2.5923 2.194-.9131 5.646-1.006 7.203.944 1.138 1.4471.767 3.4048.444 5.0371zM194.348 117.632c-.861.816-1.82 1.503-2.851 2.044-.914.48-1.726.892-2.413 1.237-1.523.757-2.859 1.421-4.593 2.136-.952.387-1.796.707-2.491.951.052-4.275.654-8.521 1.789-12.618.406-1.46.881-2.897 1.421-4.306 1.499-.059 2.827-.076 3.952-.076 1.492 0 2.546 0 3.905.101s2.796.294 3.905.488c.031.294.383 7.108-2.624 10.043z" fill="#006099"/>
  <path d="M170.191 246c-.528 0 .276 7.821-2.656 12.154-2.931 4.334-8.535 3.099-8.535 3.836 0 .738 5.539-.654 8.535 3.754 3.094 4.565 2.055 13.256 2.502 13.256.446 0-.52-8.708 2.623-13.256 2.98-4.309 8.34-2.983 8.34-3.754 0-.77-5.425.556-8.34-3.836-2.916-4.391-1.941-12.146-2.469-12.154zM261.822 57c-.886 0 .467 13.0235-4.47 20.2597C252.286 84.6669 243 82.4203 243 83.6494c0 1.2291 9.318-1.0989 14.352 6.2513 5.211 7.6025 3.463 22.0913 4.212 22.0993.749.008-.877-14.5131 4.414-22.0993 5.01-7.1792 14.022-4.9815 14.022-6.2513s-9.125.9116-14.054-6.4141-3.222-20.219-4.124-20.2353zM254.5 261c3.038 0 5.5-2.462 5.5-5.5s-2.462-5.5-5.5-5.5-5.5 2.462-5.5 5.5 2.462 5.5 5.5 5.5zM147.5 211c1.933 0 3.5-1.567 3.5-3.5s-1.567-3.5-3.5-3.5-3.5 1.567-3.5 3.5 1.567 3.5 3.5 3.5zM153.5 29c3.038 0 5.5-2.6863 5.5-6s-2.462-6-5.5-6-5.5 2.6863-5.5 6 2.462 6 5.5 6z" fill="#fff"/>
  <path opacity=".64" d="M150 44c1.105 0 2-.8954 2-2s-.895-2-2-2-2 .8954-2 2 .895 2 2 2zM277 97c1.105 0 2-.8954 2-2s-.895-2-2-2-2 .8954-2 2 .895 2 2 2zM150 201c1.105 0 2-.895 2-2s-.895-2-2-2-2 .895-2 2 .895 2 2 2z" fill="#fff"/>
  <path opacity=".83" d="M280.5 155c1.381 0 2.5-1.343 2.5-3s-1.119-3-2.5-3-2.5 1.343-2.5 3 1.119 3 2.5 3zM264 249c1.105 0 2-1.119 2-2.5s-.895-2.5-2-2.5-2 1.119-2 2.5.895 2.5 2 2.5z" fill="#fff"/>
  <path d="M220.5 152c1.933 0 3.5-1.567 3.5-3.5s-1.567-3.5-3.5-3.5-3.5 1.567-3.5 3.5 1.567 3.5 3.5 3.5z" fill="#fff"/>
</svg>
