<svg xmlns="http://www.w3.org/2000/svg" width="1109" height="311" fill="none"><path stroke="#E1E1E1" stroke-linecap="round" stroke-miterlimit="10" stroke-width="5.7" d="M9 203c11.9513 26.963 30.4848 50.509 53.9075 68.489C111.134 308.309 163.897 308.456 180 307.885"/><path fill="#006099" d="M170 55.9117C170 79.5608 146.499 93 146.499 93c-11.391-7.1681-25.426-17.8917-25.426-18.9845V60.087c-6.993 2.789-23.747 5.5698-23.747 5.5698s-2.7923-2.7808-12.5777-5.5698c-5.453-1.6264-11.0905-2.5607-16.7785-2.7808 0 0 0-1.3945-8.3852-12.534-1.6377-2.1855-3.5702-4.5341-5.5846-6.8908C76.1359 18.8663 103.195 6.43276 132.087 2c0 0 37.913 30.2463 37.913 53.9117z"/><path fill="#817AF3" d="M264.588 92.0236c-3.224 33.8474-24.253 55.1994-31.872 62.9634-7.382 7.488-14.099 13.221-29.297 21.858-29.403 16.704-71.412 23.652-88.217 82.155-2.46-7.683-8.079-28.415 0-51.521 3.379-9.588 8.568-18.446 15.288-26.099 1.534-1.705 8.883-9.909 18.306-15.382 4.429-2.577 8.792-5.285 13.238-7.846.549-.318 2.345-1.387 4.667-2.936 0 0 1.066-.718 2.14-1.501 12.787-9.347 16.723-14.77 16.723-14.77 4.195-5.91 6.967-12.699 8.104-19.844.16-1.486.434-2.959.82-4.404.657-2.443 1.633-4.79 2.903-6.981l-4.101-.473-4.994-.098-3.109.073c-1.394 0-15.403-1.395-15.403-1.395s-4.199-2.781-15.402-8.3512c-2.321-1.1582-5.135-2.7975-8.136-4.6816 0 0 23.538-13.4246 23.538-37.0931 0-23.6686-37.998-53.87813-37.998-53.87813C139.727.60894 147.75.00093 155.784.0002c33.652-.05315 66.421 10.7059 93.425 30.6745 5.233 8.1559 18.266 31.0659 15.379 61.3489z"/><path fill="#00E0FF" d="M311 136.784c-12.422 43.127-39.329 51.607-67.327 62.748-27.998 11.141-81.117 18.119-99.323 30.655C126.143 242.724 121.997 272 121.997 272c-3.413-3.482-5.829-7.811-6.997-12.536 16.789-58.528 58.757-65.498 88.131-82.214 14.797-8.423 21.565-14.087 29.267-21.873 7.194-7.272 23.475-24.134 29.637-49.958 8.685-36.4261-8.481-66.7633-13.11-74.419 16.986 12.5393 31.244 28.3782 41.913 46.5598C301.507 95.7414 308.366 115.889 311 136.784z"/><path fill="#817AF3" d="M312 155.666c.034 28.893-7.943 57.228-23.041 81.845-52.367 42.709-105.494 17.502-132.037 24.494C130.379 268.998 140.156 290 140.156 290 130.338 284.401 122 271.801 122 271.801s4.189-29.388 22.346-41.988c18.156-12.599 71.251-19.592 99.185-30.79 27.934-11.198 54.821-19.674 67.233-63.023.819 6.523 1.232 13.091 1.236 19.666z"/><path fill="#006099" d="M289 238c-11.72 19.015-27.441 35.293-46.088 47.72-18.647 12.427-39.778 20.709-61.949 24.28-27.978-6.1-40.197-20.136-40.197-20.136s-9.783-20.718 16.703-27.627C183.955 255.329 236.828 280.173 289 238z"/><path fill="#E1E1E1" d="M183.615 111.671c.424-1.482.896-2.874 1.385-4.192-5.684-.116-11.313-1.136-16.679-3.022-4.481-1.596-8.237-3.651-13.925-6.7629-3.316-1.8178-5.874-3.2752-8.083-4.7-11.333-7.1972-25.299-17.9645-25.299-19.0617V59.9473c-6.958 2.8003-23.629 5.5924-23.629 5.5924s-2.7785-2.7921-12.5153-5.5924c-5.426-1.6331-11.0354-2.5712-16.6952-2.7921 0 0 0-1.4002-8.3435-12.585-1.6296-2.1944-3.5525-4.5526-5.5569-6.9189C46.0528 27.9321 36.1775 18 36.1775 18s-5.5651 9.8256-6.9503 18.1774c-1.3851 8.3518-2.7865 13.977-2.7865 13.977s-2.7785-1.4002-2.7785-4.1923c0-2.7921-2.7866 4.1923-2.7866 4.1923s-1.3933 18.1774-2.7785 26.5619c-1.3851 8.3846-1.7436 9.8257-1.7436 9.8257C6.85358 105.734 1.36425 126.677.2236 148.081-.91706 169.486 2.31513 190.898 9.72104 211c4.47876-10.374 10.08606-20.219 16.71966-29.354 11.1301-15.377 23.629-22.37 38.9554-29.354 10.8983-4.805 22.0506-9.007 33.4066-12.585l-5.6139-1.441c-5.5651-1.4-12.5153-5.593-12.5153-5.593 17.5802 1.432 35.2245 1.899 52.8555 1.4 0 0 19.441-.589 36.772-5.608 3.35-.989 6.619-2.238 9.778-3.734.611-.295 1.1-.549 1.409-.712.261-4.182.974-8.322 2.127-12.348zM47.2668 61.9779c-.7088.4667-1.9555-1.6867-3.9762-1.4902-2.3792.2292-4.0739 3.5454-5.1902 6.7797.0815-.6141.2444-1.8997.4318-3.5209 1.2059-10.8655 1.157-20.7157 1.6296-20.7239 0 0 .0652.0491.1467.1474.2231.2645.3796.579.4563.9171.2688 1.0808 8.4005 16.638 6.502 17.8908zm69.5752 39.9081c.034.557-.05 1.115-.244 1.638-.383.86-1.369 1.719-3.936 2.571-4.171 1.4-11.122 0-11.122 0l2.241-2.743c1.157-1.056 2.746-2.456 4.71-4.2332 1.039-.8932 2.16-1.6855 3.348-2.3664 1.785-1.0235 2.6-1.1545 3.137-.8188.22.1229.375.303.644.8762.783 1.578 1.201 3.3132 1.222 5.0762z"/><path fill="#006099" d="M53.9936 60.4177c-.3575 2.3708-3.2501 2.2237-9.6446 6.9653-4.7938 3.5644-6.5001 6.1397-7.7352 5.5265-1.0644-.5314-.4875-2.7632-.1706-8.0199.3169-5.2567.3088-12.5981 1.9744-20.7489.1544-.7766.4063-1.9457 1.1132-2.1337 1.3894-.3924 14.8041 15.8764 14.4628 18.4107zM116.674 101.607c-.065 1.032-.522 2.005-1.285 2.735-.763.73-1.778 1.167-2.853 1.227-3.646.575-7.366.575-11.012 0l-.524-.387c1.304-2.505 2.93-4.845 4.84-6.9638 1.614-1.7643 2.42-2.2673 3.187-2.5923 2.194-.9131 5.646-1.006 7.203.944 1.138 1.4471.767 3.4048.444 5.0371zM194.348 117.632c-.861.816-1.82 1.503-2.851 2.044-.914.48-1.726.892-2.413 1.237-1.523.757-2.859 1.421-4.593 2.136-.952.387-1.796.707-2.491.951.052-4.275.654-8.521 1.789-12.618.406-1.46.881-2.897 1.421-4.306 1.499-.059 2.827-.076 3.952-.076 1.492 0 2.546 0 3.905.101s2.796.294 3.905.488c.031.294.383 7.108-2.624 10.043z"/><path fill="#fff" d="M170.191 246c-.528 0 .276 7.821-2.656 12.154-2.931 4.334-8.535 3.099-8.535 3.836 0 .738 5.539-.654 8.535 3.754 3.094 4.565 2.055 13.256 2.502 13.256.446 0-.52-8.708 2.623-13.256 2.98-4.309 8.34-2.983 8.34-3.754 0-.77-5.425.556-8.34-3.836-2.916-4.391-1.941-12.146-2.469-12.154zM261.822 57c-.886 0 .467 13.0235-4.47 20.2597C252.286 84.6669 243 82.4203 243 83.6494c0 1.2291 9.318-1.0989 14.352 6.2513 5.211 7.6025 3.463 22.0913 4.212 22.0993.749.008-.877-14.5131 4.414-22.0993 5.01-7.1792 14.022-4.9815 14.022-6.2513s-9.125.9116-14.054-6.4141-3.222-20.219-4.124-20.2353zM254.5 261c3.038 0 5.5-2.462 5.5-5.5s-2.462-5.5-5.5-5.5-5.5 2.462-5.5 5.5 2.462 5.5 5.5 5.5zM147.5 211c1.933 0 3.5-1.567 3.5-3.5s-1.567-3.5-3.5-3.5-3.5 1.567-3.5 3.5 1.567 3.5 3.5 3.5zM153.5 29c3.038 0 5.5-2.6863 5.5-6s-2.462-6-5.5-6-5.5 2.6863-5.5 6 2.462 6 5.5 6z"/><path fill="#fff" d="M150 44c1.105 0 2-.8954 2-2s-.895-2-2-2-2 .8954-2 2 .895 2 2 2zM277 97c1.105 0 2-.8954 2-2s-.895-2-2-2-2 .8954-2 2 .895 2 2 2zM150 201c1.105 0 2-.895 2-2s-.895-2-2-2-2 .895-2 2 .895 2 2 2z" opacity=".64"/><path fill="#fff" d="M280.5 155c1.381 0 2.5-1.343 2.5-3s-1.119-3-2.5-3-2.5 1.343-2.5 3 1.119 3 2.5 3zM264 249c1.105 0 2-1.119 2-2.5s-.895-2.5-2-2.5-2 1.119-2 2.5.895 2.5 2 2.5z" opacity=".83"/><path fill="#fff" d="M220.5 152c1.933 0 3.5-1.567 3.5-3.5s-1.567-3.5-3.5-3.5-3.5 1.567-3.5 3.5 1.567 3.5 3.5 3.5z"/><path fill="#006099" d="M404.998 183.916v28.168c.005.121-.014.242-.057.356-.043.113-.109.216-.192.302-.084.086-.184.153-.294.197-.111.044-.229.064-.347.059h-3.49a.8143.8143 0 01-.349-.053c-.112-.043-.213-.111-.297-.197-.085-.087-.15-.191-.192-.305-.042-.115-.06-.237-.052-.359v-11.762h-16.456v11.762c.008.122-.01.244-.052.359-.042.114-.107.218-.192.305-.084.086-.185.154-.297.197a.8143.8143 0 01-.349.053h-3.49c-.119.008-.238-.01-.35-.053-.111-.043-.212-.111-.297-.197-.084-.087-.149-.191-.191-.305-.042-.115-.06-.237-.052-.359v-28.168c-.008-.122.01-.244.052-.359.042-.114.107-.218.191-.305.085-.086.186-.154.297-.197.112-.043.231-.061.35-.053h3.49c.119-.008.238.01.349.053.112.043.213.111.297.197.085.087.15.191.192.305.042.115.06.237.052.359v11.762h16.456v-11.762c-.008-.122.01-.244.052-.359.042-.114.107-.218.192-.305.084-.086.185-.154.297-.197.111-.043.23-.061.349-.053h3.49c.119-.008.238.01.35.053.111.043.212.111.297.197.084.087.149.191.191.305.042.115.06.237.052.359zM439.995 183.508v27.86c.008.121-.01.242-.051.355-.041.113-.106.216-.189.302-.083.085-.182.152-.292.194-.11.043-.227.061-.344.053h-3.232c-.115.003-.23-.019-.338-.064-.107-.044-.205-.111-.287-.195-.081-.085-.146-.185-.189-.296-.043-.111-.064-.23-.062-.349l-.241-3.334c-1.133 1.558-2.605 2.82-4.298 3.683-1.693.862-3.559 1.302-5.447 1.282-8.147 0-14.025-6.845-14.025-15.499s5.878-15.5 14.025-15.5c1.902-.01 3.779.438 5.483 1.31 1.704.871 3.187 2.141 4.331 3.709l.172-3.547c-.005-.12.014-.24.057-.352.042-.112.107-.214.189-.299.082-.085.181-.151.289-.195.109-.043.225-.063.341-.058h3.232c.12-.009.241.01.353.055.112.044.214.114.297.204.084.089.148.197.187.314.039.118.052.243.039.367zm-5.053 13.921c.078-1.33-.109-2.663-.549-3.916-.44-1.253-1.123-2.4-2.009-3.371-.885-.97-1.954-1.743-3.139-2.272-1.186-.528-2.464-.801-3.756-.801-1.292 0-2.57.273-3.756.801-1.185.529-2.254 1.302-3.139 2.272-.886.971-1.569 2.118-2.009 3.371-.44 1.253-.627 2.586-.549 3.916 0 6.065 4.039 10.64 9.505 10.64 1.298-.049 2.573-.366 3.752-.93 1.178-.564 2.236-1.365 3.111-2.355.876-.991 1.551-2.151 1.987-3.414.435-1.263.623-2.603.551-3.941zM470.926 184.003l-14.87 38.29c-.079.215-.222.4-.41.527-.189.127-.411.19-.637.179h-3.375c-.625 0-.979-.362-.692-.999l3.983-10.059-10.836-27.938c-.236-.654 0-.998.692-.998h3.511c.225-.014.449.047.638.175.189.127.332.313.408.531l8.186 22.046 8.186-22.046c.073-.216.213-.402.399-.529.186-.128.407-.19.631-.177h3.578c.54-.052.827.344.608.998zM502.998 183.916v28.168c.008.122-.01.244-.053.359-.043.114-.11.218-.197.305-.086.086-.19.154-.305.197-.114.043-.237.061-.359.053h-3.585c-.122.008-.244-.01-.359-.053-.114-.043-.218-.111-.305-.197-.086-.087-.153-.191-.196-.305-.043-.115-.062-.237-.054-.359v-11.888c-1.348 1.614-3.034 2.911-4.939 3.801-1.904.889-3.981 1.348-6.084 1.345-5.377 0-11.56-2.635-11.56-11.69v-9.736c-.008-.122.01-.244.053-.359.043-.114.11-.218.197-.305.086-.086.19-.154.305-.197.114-.043.237-.061.359-.053h3.674c.122-.008.245.01.359.053.115.043.219.111.305.197.087.087.154.191.197.305.043.115.061.237.053.359v9.557c0 5.146 2.761 7.333 7.17 7.333 1.998-.079 3.947-.645 5.677-1.648 1.73-1.003 3.19-2.413 4.252-4.107v-11.135c-.008-.122.011-.244.054-.359.043-.114.11-.218.196-.305.087-.086.191-.154.305-.197.115-.043.237-.061.359-.053h3.585c.121-.005.241.015.353.059.113.044.214.112.299.198.084.086.15.189.192.303.042.113.06.234.052.354zM534.998 183.916v28.168c.008.122-.01.244-.052.359-.042.114-.107.218-.191.305-.085.086-.186.154-.297.197-.112.043-.231.061-.35.053h-3.49a.8143.8143 0 01-.349-.053c-.112-.043-.213-.111-.297-.197-.085-.087-.15-.191-.192-.305-.042-.115-.06-.237-.052-.359v-11.762h-16.456v11.762c.008.122-.01.244-.052.359-.042.114-.107.218-.192.305-.084.086-.185.154-.297.197a.8143.8143 0 01-.349.053h-3.49c-.118.005-.236-.015-.347-.059-.11-.044-.21-.111-.293-.197a.88148.88148 0 01-.193-.302c-.043-.114-.062-.235-.057-.356v-28.168c-.008-.122.01-.244.052-.359.042-.114.107-.218.191-.305.085-.086.186-.154.297-.197.112-.043.231-.061.35-.053h3.49c.119-.008.238.01.349.053.112.043.213.111.297.197.085.087.15.191.192.305.042.115.06.237.052.359v11.762h16.456v-11.762c-.008-.122.01-.244.052-.359.042-.114.107-.218.192-.305.084-.086.185-.154.297-.197.111-.043.23-.061.349-.053h3.49c.119-.008.238.01.35.053.111.043.212.111.297.197.084.087.149.191.191.305.042.115.06.237.052.359zM567.318 203.011c0 6.312-4.323 9.987-12.201 9.987h-13.244c-.116.008-.233-.01-.342-.053-.109-.043-.208-.111-.291-.197a.87873.87873 0 01-.187-.305c-.041-.115-.059-.237-.051-.359v-28.168c-.008-.122.01-.244.051-.359.041-.114.105-.218.187-.305.083-.086.182-.154.291-.197.109-.043.226-.061.342-.053h3.503c.117-.008.234.01.343.053.109.043.208.111.29.197.083.087.147.191.188.305.041.115.058.237.051.359v9.126h8.869c7.878 0 12.201 3.604 12.201 9.969zm-5.024 0c0-3.586-2.153-5.379-7.058-5.379h-8.988v10.902h8.988c4.905-.072 7.058-1.973 7.058-5.523zm15.704-19.095v28.168c.005.121-.014.242-.056.356-.042.113-.106.216-.188.302s-.18.153-.288.197a.807.807 0 01-.339.059h-3.418c-.117.008-.234-.01-.344-.053-.11-.043-.21-.11-.294-.196-.084-.087-.15-.19-.193-.305a.917.917 0 01-.058-.36v-28.168a.917.917 0 01.058-.36c.043-.115.109-.218.193-.305.084-.086.184-.153.294-.196.11-.043.227-.061.344-.053h3.418c.116-.008.233.01.342.053.109.043.208.111.291.197.082.087.146.191.187.305.041.115.059.237.051.359zM610.998 184.46v27.641c.007.12-.01.24-.052.352-.041.113-.106.215-.189.3-.083.085-.183.15-.293.193-.11.042-.228.06-.345.052h-3.448c-.118.008-.235-.01-.345-.052-.111-.043-.21-.108-.294-.193-.083-.085-.147-.187-.189-.3-.041-.112-.059-.232-.051-.352v-21.94L590.88 212.4c-.123.187-.29.34-.486.444-.196.104-.414.158-.635.154h-4.878c-.118.008-.235-.01-.345-.052-.11-.043-.21-.108-.294-.193-.083-.085-.147-.187-.189-.3-.041-.112-.059-.232-.051-.352V184.46c-.008-.119.01-.24.051-.352.042-.112.106-.214.189-.299.084-.085.184-.151.294-.193.11-.043.227-.061.345-.053h3.448c.117-.008.235.01.345.053.11.042.21.108.293.193.083.085.148.187.189.299.042.112.059.233.052.352v22.292l15.067-22.591c.123-.187.29-.339.486-.444.195-.104.413-.157.634-.154h4.655c.122-.019.248-.009.367.028.118.038.227.102.318.188.091.086.162.192.208.31.045.118.064.245.055.371zm-21.549-12.562c0-.598.242-.897.828-.897h1.724c.232-.01.458.073.632.23.174.158.281.378.298.614.287 1.083.914 2.04 1.787 2.722.873.683 1.941 1.052 3.04 1.052s2.168-.369 3.041-1.052c.872-.682 1.5-1.639 1.786-2.722.022-.238.133-.458.309-.615.177-.157.405-.239.639-.229h1.724c.604 0 .897.299.828.897-.337 2.015-1.361 3.843-2.891 5.161-1.53 1.317-3.468 2.04-5.47 2.04s-3.94-.723-5.47-2.04c-1.53-1.318-2.554-3.146-2.891-5.161h.086zM667.998 183.916v28.168c.005.121-.014.242-.058.356-.043.113-.108.216-.193.302-.084.086-.184.153-.295.197-.111.044-.229.064-.348.059h-3.594c-.12.008-.241-.01-.354-.053-.112-.043-.215-.11-.301-.196-.086-.087-.154-.19-.198-.305-.044-.114-.064-.237-.059-.36v-19.956l-9.486 20.189c-.087.201-.23.373-.41.494-.18.121-.391.186-.607.187h-4.243c-.216.003-.429-.06-.61-.181-.181-.122-.323-.296-.407-.5l-9.521-20.081v19.848c.006.123-.015.246-.059.36-.044.115-.111.218-.197.305-.086.086-.189.153-.302.196-.113.043-.233.061-.353.053h-3.507a.84577.84577 0 01-.348-.059c-.111-.044-.211-.111-.295-.197a.88148.88148 0 01-.193-.302c-.044-.114-.063-.235-.058-.356v-28.168c-.008-.122.01-.244.052-.359.042-.114.108-.218.193-.305.084-.086.186-.154.298-.197.112-.043.231-.061.351-.053h4.98c.214-.002.424.059.604.177.181.118.324.287.412.486l11.187 23.399 11.204-23.399c.088-.199.231-.368.412-.486.181-.118.391-.179.605-.177h4.839c.117-.003.233.019.34.065.108.045.205.113.286.199.081.086.143.188.184.3.04.112.057.231.049.35zM701.995 183.508v27.86c.008.121-.01.242-.053.355-.043.113-.109.216-.195.302-.086.085-.189.152-.303.194-.113.043-.235.061-.356.053h-3.342c-.12.003-.239-.019-.35-.064-.111-.044-.212-.111-.297-.195-.085-.085-.151-.185-.196-.296-.045-.111-.067-.23-.064-.349l-.249-3.334c-1.172 1.558-2.695 2.82-4.446 3.683-1.752.862-3.682 1.302-5.635 1.282-8.428 0-14.509-6.845-14.509-15.499s6.081-15.5 14.509-15.5c1.965-.012 3.905.436 5.665 1.308 1.76.872 3.291 2.143 4.469 3.711l.196-3.547c-.005-.12.015-.24.059-.352.043-.112.11-.213.195-.299.086-.085.188-.151.3-.195.112-.043.232-.063.353-.058h3.342c.125-.009.249.01.366.055.116.045.221.114.307.204.087.089.153.197.193.314.04.118.054.243.041.367zm-5.227 13.921c.08-1.33-.113-2.663-.568-3.916-.455-1.253-1.162-2.4-2.078-3.371-.916-.97-2.022-1.743-3.248-2.272-1.227-.528-2.549-.801-3.885-.801-1.337 0-2.659.273-3.885.801-1.227.529-2.332 1.302-3.248 2.272-.916.971-1.624 2.118-2.079 3.371a9.73925 9.73925 0 00-.567 3.916c0 6.065 4.178 10.64 9.832 10.64 1.343-.049 2.663-.366 3.882-.93 1.219-.564 2.313-1.365 3.219-2.355.905-.991 1.604-2.151 2.054-3.414.451-1.263.645-2.603.571-3.941zM725.998 183.916v2.761c.008.123-.01.245-.05.359-.041.115-.105.219-.187.306-.082.086-.181.153-.29.196-.108.044-.224.062-.34.054h-12.892v24.492c.005.121-.014.242-.056.356-.042.113-.106.216-.187.302-.082.086-.179.153-.287.197-.107.044-.222.064-.337.059h-3.487c-.116.008-.233-.01-.343-.053-.109-.043-.209-.11-.292-.196-.084-.087-.149-.19-.192-.305-.043-.114-.062-.237-.057-.36v-28.168c-.005-.123.014-.246.057-.36.043-.115.108-.218.192-.305.083-.086.183-.153.292-.196.11-.043.227-.061.343-.053h17.246c.116-.008.232.01.34.053.109.043.208.111.29.197.082.087.146.191.187.305.04.115.058.237.05.359zM755.995 183.508v27.86c.008.121-.01.242-.051.355-.041.113-.106.216-.189.302-.083.085-.182.152-.292.194-.11.043-.227.061-.344.053h-3.232c-.115.003-.23-.019-.338-.064-.107-.044-.205-.111-.287-.195-.081-.085-.146-.185-.189-.296-.043-.111-.064-.23-.062-.349l-.241-3.334c-1.132 1.558-2.605 2.82-4.298 3.683-1.693.862-3.559 1.302-5.447 1.282-8.147 0-14.025-6.845-14.025-15.499s5.878-15.5 14.025-15.5c1.899-.012 3.775.436 5.477 1.308 1.701.872 3.181 2.143 4.32 3.711l.189-3.547c-.005-.12.014-.24.057-.352.042-.112.107-.213.189-.299.082-.085.181-.151.289-.195.109-.043.225-.063.341-.058h3.232c.12-.009.241.01.353.055.112.045.214.114.297.204.084.089.148.197.187.314.039.118.052.243.039.367zm-5.156 13.921c.078-1.33-.109-2.663-.549-3.916-.44-1.253-1.123-2.4-2.009-3.371-.885-.97-1.954-1.743-3.139-2.272-1.186-.528-2.464-.801-3.756-.801-1.292 0-2.57.273-3.756.801-1.185.529-2.254 1.302-3.139 2.272-.886.971-1.569 2.118-2.009 3.371-.44 1.253-.627 2.586-.549 3.916 0 6.065 4.039 10.64 9.505 10.64 1.298-.049 2.573-.366 3.752-.93 1.178-.564 2.236-1.365 3.111-2.355.876-.991 1.551-2.151 1.987-3.414.435-1.263.623-2.603.551-3.941zM781 203.753c0 5.374-4.41 9.226-10.458 9.226-1.712.105-3.424-.186-5.011-.853-1.587-.666-3.008-1.691-4.157-2.999-.128-.115-.227-.258-.291-.419-.065-.16-.092-.334-.08-.508.011-.173.062-.341.148-.491.085-.15.203-.278.344-.373l1.569-1.577c.471-.501 1.011-.376 1.604.179.757.751 1.654 1.337 2.636 1.725.982.387 2.03.569 3.081.533 3.207 0 5.717-1.953 5.717-4.819 0-2.867-2.58-4.784-6.711-4.784-.176.02-.354.002-.524-.052-.169-.054-.326-.144-.46-.263-.134-.12-.243-.266-.32-.431-.076-.164-.119-.343-.125-.526v-1.469c-.008-.192.024-.385.094-.564.069-.179.175-.341.311-.474.135-.134.296-.237.473-.302.176-.065.364-.09.551-.075 3.487 0 5.596-1.792 5.596-4.031s-1.97-3.673-4.585-3.673c-1.86.046-3.647.755-5.054 2.007-.118.131-.261.236-.42.308-.159.072-.33.109-.504.109s-.346-.037-.505-.109c-.159-.072-.301-.177-.419-.308l-1.255-1.344c-.126-.094-.229-.219-.299-.362-.071-.143-.108-.301-.108-.462 0-.16.037-.319.108-.462.07-.143.173-.267.299-.362 1.061-1.216 2.366-2.181 3.826-2.828 1.46-.647 3.039-.959 4.628-.916 5.229 0 9.22 3.368 9.22 8.026-.077 1.269-.46 2.498-1.114 3.577-.654 1.079-1.559 1.973-2.633 2.604 1.43.639 2.648 1.693 3.505 3.033.858 1.339 1.317 2.906 1.323 4.509zM812.998 183.916v28.168c.005.121-.014.242-.054.356-.041.113-.103.216-.183.302-.079.086-.174.153-.279.197-.105.044-.217.064-.329.059h-3.399c-.114.008-.228-.01-.334-.053-.107-.043-.204-.11-.286-.196-.081-.087-.144-.19-.186-.305-.042-.114-.061-.237-.056-.36v-22.359l-14.259 22.664c-.122.187-.283.34-.471.446-.187.106-.395.162-.607.163h-4.692c-.114.008-.228-.01-.334-.053-.107-.043-.204-.11-.285-.196-.082-.087-.145-.19-.187-.305-.042-.114-.061-.237-.056-.36v-28.168c-.005-.123.014-.246.056-.36.042-.115.105-.218.187-.305.081-.086.178-.153.285-.196.106-.043.22-.061.334-.053h3.316c.114-.008.227.01.334.053.107.043.204.11.285.196.082.087.145.19.187.305.042.114.061.237.056.36v22.717l14.607-23.022c.118-.191.278-.348.467-.454.188-.107.398-.16.611-.155h4.477c.108-.001.216.023.316.07.1.047.19.115.265.2.074.086.132.188.169.298.037.111.052.229.045.346zM845.998 183.916v28.168c.008.122-.01.244-.051.359-.042.114-.107.218-.191.305-.083.086-.184.154-.295.197-.111.043-.229.061-.347.053h-3.554a.8098.8098 0 01-.348-.053c-.111-.043-.211-.111-.295-.197a.88623.88623 0 01-.19-.305c-.042-.115-.059-.237-.052-.359v-11.762h-16.35v11.762c.007.122-.01.244-.052.359-.042.114-.107.218-.19.305-.084.086-.185.154-.295.197a.8098.8098 0 01-.348.053h-3.554c-.118.008-.237-.01-.347-.053-.111-.043-.212-.111-.295-.197-.084-.087-.149-.191-.191-.305-.041-.115-.059-.237-.051-.359v-28.168c-.008-.122.01-.244.051-.359.042-.114.107-.218.191-.305.083-.086.184-.154.295-.197.11-.043.229-.061.347-.053h3.554c.119-.008.237.01.348.053.11.043.211.111.295.197.083.087.148.191.19.305.042.115.059.237.052.359v11.762h16.35v-11.762c-.007-.122.01-.244.052-.359.042-.114.107-.218.19-.305.084-.086.184-.154.295-.197a.8098.8098 0 01.348-.053h3.554c.118-.008.236.01.347.053.111.043.212.111.295.197.084.087.149.191.191.305.041.115.059.237.051.359zM433.997 83.5019v66.9961c.013.2-.018.401-.089.588-.072.188-.183.358-.327.5-.143.142-.315.252-.505.323-.19.071-.393.101-.595.088h-12.635c-.202.013-.405-.017-.595-.088-.19-.071-.362-.181-.505-.323a1.4086 1.4086 0 01-.327-.5c-.071-.187-.102-.388-.089-.588v-26.02h-24.66v26.02c.013.2-.018.401-.089.588-.072.188-.183.358-.327.5-.143.142-.315.252-.505.323-.19.071-.393.101-.595.088h-12.635c-.202.013-.405-.017-.595-.088-.19-.071-.362-.181-.505-.323a1.4086 1.4086 0 01-.327-.5c-.071-.187-.102-.388-.089-.588V83.5019c-.013-.2001.018-.4006.089-.5882.072-.1877.183-.358.327-.4998.143-.1418.315-.2519.505-.3227.19-.0709.393-.101.595-.0884h12.635c.202-.0126.405.0175.595.0884.19.0708.362.1809.505.3227.144.1418.255.3121.327.4998.071.1876.102.3881.089.5882v27.3641h24.66V83.5019c-.013-.2001.018-.4006.089-.5882.072-.1877.183-.358.327-.4998.143-.1418.315-.2519.505-.3227.19-.0709.393-.101.595-.0884h12.635c.202-.0126.405.0175.595.0884.19.0708.362.1809.505.3227.144.1418.255.3121.327.4998.071.1876.102.3881.089.5882zM443 117.052c-.01-7.125 2.094-14.092 6.046-20.0203 3.951-5.9281 9.573-10.5503 16.154-13.2814 6.58-2.7312 13.822-3.4485 20.811-2.0611 6.988 1.3874 13.407 4.8172 18.445 9.855 5.038 5.0378 8.467 11.4568 9.855 18.4448 1.387 6.989.67 14.231-2.061 20.811-2.731 6.581-7.354 12.203-13.282 16.154-5.928 3.952-12.895 6.056-20.02 6.046-9.534 0-18.677-3.787-25.419-10.529-6.742-6.742-10.529-15.885-10.529-25.419zm56.419 0c-.088-4.016-1.359-7.917-3.653-11.215-2.294-3.297-5.51-5.8444-9.245-7.323a20.41969 20.41969 0 00-11.753-.9892c-3.93.8335-7.526 2.8072-10.339 5.6752-2.813 2.867-4.718 6.501-5.476 10.446-.758 3.945-.336 8.026 1.214 11.732 1.55 3.705 4.158 6.872 7.499 9.103 3.341 2.23 7.265 3.426 11.282 3.437 2.72-.006 5.412-.553 7.918-1.609 2.507-1.056 4.779-2.6 6.683-4.541a20.5347 20.5347 0 004.413-6.769c1.007-2.526 1.503-5.228 1.457-7.947zM583.997 83.4969v66.5821c.012.199-.017.399-.088.585-.07.186-.179.356-.32.497-.14.141-.309.25-.495.32-.187.071-.386.101-.584.088h-12.392c-.198.013-.397-.017-.583-.088-.186-.07-.355-.179-.496-.32-.141-.141-.25-.311-.32-.497s-.1-.386-.088-.585V95.6215h-24.082v35.6205c0 13.7-9.229 20.755-21.518 20.755-.256.018-.511-.05-.724-.193-.213-.142-.373-.351-.456-.594l-3.777-12.125c-.056-.117-.081-.246-.072-.375.008-.129.049-.253.12-.362.07-.108.167-.196.282-.256.114-.06.242-.09.371-.086 4.649 0 10.255-2.791 10.255-9.744V83.4969c-.013-.1989.017-.3982.087-.5847.071-.1864.18-.3557.32-.4967.141-.1409.31-.2503.496-.3207.186-.0704.385-.1003.584-.0878h51.942c.202-.0203.407.0038.599.0707.193.067.368.1751.515.3169.146.1418.26.3139.333.5043.073.1903.104.3944.091.598zM595.571 151.997c-.21.013-.419-.017-.616-.088-.196-.071-.374-.181-.522-.323-.149-.142-.264-.312-.338-.5-.074-.188-.105-.388-.092-.589V83.5027c-.013-.2003.018-.4009.092-.5886.074-.1877.189-.3581.338-.5.148-.1419.326-.252.522-.3229.197-.0709.406-.101.616-.0884h13.064c.21-.0126.419.0175.616.0884.196.0709.374.181.522.3229.149.1419.264.3123.338.5.074.1877.105.3883.092.5886v22.1013h7.623c17.551 0 27.174 9.603 27.174 23.205 0 13.603-9.623 23.188-27.174 23.188h-22.255zm14.632-32.756v18.964h7.208c5.749 0 12.02-2.103 12.02-9.499 0-7.396-6.271-9.499-12.02-9.499l-7.208.034zM734.766 151.963h-14.798c-.341.02-.682-.053-.985-.211-.303-.158-.558-.394-.738-.685l-19.449-27.088-5.306 6.1v20.419c.013.2-.018.401-.088.588-.071.188-.181.358-.323.5-.142.142-.312.252-.5.323-.187.071-.388.101-.588.088h-12.489c-.201.013-.401-.017-.589-.088-.187-.071-.358-.181-.499-.323-.142-.142-.252-.312-.323-.5-.071-.187-.101-.388-.088-.588V83.5019a1.4043 1.4043 0 01.088-.5882c.071-.1877.181-.358.323-.4998.141-.1418.312-.2519.499-.3227.188-.0709.388-.101.589-.0884h12.489c.2-.0126.401.0175.588.0884.188.0708.358.1809.5.3227.142.1418.252.3121.323.4998.07.1876.101.3881.088.5882v25.9851l21.878-26.6743c.208-.2561.471-.4619.769-.6022.298-.1402.624-.2112.954-.2077h15.591c1.292 0 1.498.9133.792 1.8093l-24.48 28.2769 26.668 38.082c.689.999.293 1.792-.896 1.792zM783.997 139.78v10.718c.013.2-.017.401-.089.588-.072.188-.183.358-.326.5-.144.142-.316.252-.505.323-.19.071-.393.101-.595.088h-37.964c-.202.013-.405-.017-.595-.088-.189-.071-.361-.181-.505-.323-.143-.142-.254-.312-.326-.5-.072-.187-.102-.388-.089-.588V83.5019c-.013-.2001.017-.4006.089-.5882.072-.1877.183-.358.326-.4998.144-.1418.316-.2519.505-.3227.19-.0709.393-.101.595-.0884h37.877c.202-.0126.405.0175.595.0884.189.0708.361.1809.505.3227.143.1418.254.3121.326.4998.071.1876.102.3881.089.5882v10.7008c.013.2001-.018.4007-.089.5883-.072.1876-.183.358-.326.4998-.144.1418-.316.2518-.505.3227-.19.0709-.393.101-.595.0884h-23.719v13.6991h22.308c.203-.013.405.017.595.088.19.071.362.181.505.323.143.142.255.312.326.5.072.187.102.388.09.588v10.684c.012.2-.018.4-.09.588-.071.187-.183.358-.326.5-.143.141-.315.252-.505.322-.19.071-.392.101-.595.089h-22.308v15.198H782.5c.2-.01.401.022.589.094.187.072.357.182.499.324.141.141.25.311.321.497.071.186.101.385.088.584zM855.997 83.4928V150.08c.013.199-.017.398-.087.584-.071.187-.18.356-.32.497-.141.141-.31.25-.496.321-.186.07-.385.1-.583.088h-12.385c-.198.012-.397-.018-.583-.088-.186-.071-.355-.18-.495-.321-.141-.141-.25-.31-.32-.497-.07-.186-.1-.385-.088-.584V95.6182h-24.137v35.6228c0 13.701-9.224 20.757-21.506 20.757-.258.015-.513-.053-.729-.195-.215-.142-.379-.35-.467-.593l-3.758-12.125c-.044-.124-.054-.258-.031-.387.024-.129.081-.25.165-.35.085-.101.194-.177.318-.222.123-.045.256-.057.385-.035 4.646 0 10.249-2.791 10.249-9.745V83.4928c-.012-.199.018-.3983.088-.5847.07-.1865.179-.3558.32-.4968.14-.1409.309-.2503.495-.3207.186-.0704.385-.1004.583-.0878h51.913c.197-.01.394.0218.578.0933.184.0716.351.1813.489.322.139.1407.247.3091.316.4943.069.1852.099.383.086.5804zM869.509 151.997c-.201.013-.403-.017-.591-.088-.189-.071-.36-.181-.502-.323-.143-.142-.253-.312-.324-.5-.072-.188-.102-.388-.089-.589V83.5027c-.013-.2003.017-.4009.089-.5886.071-.1877.181-.3581.324-.5.142-.1419.313-.252.502-.3229.188-.0709.39-.101.591-.0884h12.547c.202-.0124.404.0178.593.0886.19.0707.362.1805.506.322.143.1416.256.3118.329.4995.073.1877.106.3887.095.5898v22.1013h7.321c16.858 0 26.1 9.603 26.1 23.205 0 13.603-9.242 23.188-26.1 23.188h-21.391zm14.07-32.756v18.964h6.923c5.522 0 11.545-2.103 11.545-9.499 0-7.396-6.023-9.499-11.545-9.499l-6.923.034zM977 131.809c0 13.292-8.277 20.188-25.999 20.188h-24.504c-.2.013-.399-.017-.586-.088-.187-.071-.357-.181-.499-.323-.141-.142-.251-.312-.321-.5a1.4068 1.4068 0 01-.088-.589V83.5027a1.4059 1.4059 0 01.088-.5886c.07-.1877.18-.3581.321-.5.142-.1419.312-.252.499-.3229.187-.0709.386-.101.586-.0884h24.401c13.738 0 20.916 8.1028 20.916 18.1022 0 7.31-3.984 12.602-8.466 14.499 3.845.959 7.267 3.165 9.735 6.276 2.468 3.111 3.845 6.953 3.917 10.929zm-27.475-36.1004h-9.067v13.4474h9.067c4.688 0 7.864-2.103 7.864-7 0-4.8958-3.297-6.4474-7.882-6.4474h.018zm12.02 34.2044c0-5.81-4.19-8-9.96-8h-11.162v16.396h11.162c5.993 0 9.977-2.707 9.977-8.465l-.017.069zM1043 83.5019v66.9961c.01.2-.02.401-.09.588-.08.188-.19.358-.33.5-.15.142-.33.252-.52.323-.19.071-.4.101-.6.088h-12.82c-.2.013-.41-.017-.6-.088s-.37-.181-.51-.323c-.15-.142-.26-.312-.34-.5-.07-.187-.1-.388-.09-.588v-43.596l-25.22 44.061c-.17.312-.43.571-.74.747-.31.177-.67.265-1.03.253h-14.569c-.205.012-.411-.018-.604-.089-.192-.071-.367-.181-.512-.322-.146-.142-.259-.312-.331-.5-.073-.188-.104-.388-.091-.588V83.5019c-.013-.2001.018-.4006.091-.5882.072-.1877.185-.358.331-.4998.145-.1418.32-.2519.512-.3227.193-.0709.399-.101.604-.0884h12.817c.205-.0126.411.0175.603.0884.193.0708.368.1809.513.3227.146.1418.259.3121.331.4998.073.1876.104.3881.091.5882v43.6821l25.334-44.1818c.17-.3088.43-.5654.74-.7417s.67-.2655 1.03-.2577h14.46c.2-.0126.41.0175.6.0884.19.0708.37.1809.52.3227.14.1418.25.3121.33.4998.07.1876.1.3881.09.5882zM1109 83.5019v66.9961c.01.2-.02.401-.09.588-.07.188-.19.358-.33.5-.14.142-.31.252-.5.323-.19.071-.4.101-.6.088h-12.63c-.2.013-.4-.017-.59-.088-.19-.071-.37-.181-.51-.323-.14-.142-.25-.312-.33-.5-.07-.187-.1-.388-.09-.588v-26.02h-24.66v26.02c.01.2-.02.401-.09.588-.08.188-.19.358-.33.5-.14.142-.32.252-.51.323-.19.071-.39.101-.59.088h-12.63c-.2.013-.41-.017-.6-.088s-.36-.181-.5-.323c-.14-.142-.26-.312-.33-.5-.07-.187-.1-.388-.09-.588V83.5019c-.01-.2001.02-.4006.09-.5882.07-.1877.19-.358.33-.4998.14-.1418.31-.2519.5-.3227.19-.0709.4-.101.6-.0884h12.63c.2-.0126.4.0175.59.0884.19.0708.37.1809.51.3227.14.1418.25.3121.33.4998.07.1876.1.3881.09.5882v27.3641h24.66V83.5019c-.01-.2001.02-.4006.09-.5882.08-.1877.19-.358.33-.4998.14-.1418.32-.2519.51-.3227.19-.0709.39-.101.59-.0884h12.72c.19-.0004.39.0388.57.1152.18.0763.34.1882.47.3286.13.1405.24.3066.3.4881.07.1815.1.3746.09.5672z"/></svg>