<svg xmlns="http://www.w3.org/2000/svg" width="1409" height="311" fill="none"><path stroke="#E1E1E1" stroke-linecap="round" stroke-miterlimit="10" stroke-width="5.7" d="M9 203c11.9513 26.963 30.4848 50.509 53.9075 68.489C111.134 308.309 163.897 308.456 180 307.885"/><path fill="#006099" d="M170 55.9117C170 79.5608 146.499 93 146.499 93c-11.391-7.1681-25.426-17.8917-25.426-18.9845V60.087c-6.993 2.789-23.747 5.5698-23.747 5.5698s-2.7923-2.7808-12.5777-5.5698c-5.453-1.6264-11.0905-2.5607-16.7785-2.7808 0 0 0-1.3945-8.3852-12.534-1.6377-2.1855-3.5702-4.5341-5.5846-6.8908C76.1359 18.8663 103.195 6.43276 132.087 2c0 0 37.913 30.2463 37.913 53.9117z"/><path fill="#817AF3" d="M264.588 92.0236c-3.224 33.8474-24.253 55.1994-31.872 62.9634-7.382 7.488-14.099 13.221-29.297 21.858-29.403 16.704-71.412 23.652-88.217 82.155-2.46-7.683-8.079-28.415 0-51.521 3.379-9.588 8.568-18.446 15.288-26.099 1.534-1.705 8.883-9.909 18.306-15.382 4.429-2.577 8.792-5.285 13.238-7.846.549-.318 2.345-1.387 4.667-2.936 0 0 1.066-.718 2.14-1.501 12.787-9.347 16.723-14.77 16.723-14.77 4.195-5.91 6.967-12.699 8.104-19.844.16-1.486.434-2.959.82-4.404.657-2.443 1.633-4.79 2.903-6.981l-4.101-.473-4.994-.098-3.109.073c-1.394 0-15.403-1.395-15.403-1.395s-4.199-2.781-15.402-8.3512c-2.321-1.1582-5.135-2.7975-8.136-4.6816 0 0 23.538-13.4246 23.538-37.0931 0-23.6686-37.998-53.87813-37.998-53.87813C139.727.60894 147.75.00093 155.784.0002c33.652-.05315 66.421 10.7059 93.425 30.6745 5.233 8.1559 18.266 31.0659 15.379 61.3489z"/><path fill="#00E0FF" d="M311 136.784c-12.422 43.127-39.329 51.607-67.327 62.748-27.998 11.141-81.117 18.119-99.323 30.655C126.143 242.724 121.997 272 121.997 272c-3.413-3.482-5.829-7.811-6.997-12.536 16.789-58.528 58.757-65.498 88.131-82.214 14.797-8.423 21.565-14.087 29.267-21.873 7.194-7.272 23.475-24.134 29.637-49.958 8.685-36.4261-8.481-66.7633-13.11-74.419 16.986 12.5393 31.244 28.3782 41.913 46.5598C301.507 95.7414 308.366 115.889 311 136.784z"/><path fill="#817AF3" d="M312 155.666c.034 28.893-7.943 57.228-23.041 81.845-52.367 42.709-105.494 17.502-132.037 24.494C130.379 268.998 140.156 290 140.156 290 130.338 284.401 122 271.801 122 271.801s4.189-29.388 22.346-41.988c18.156-12.599 71.251-19.592 99.185-30.79 27.934-11.198 54.821-19.674 67.233-63.023.819 6.523 1.232 13.091 1.236 19.666z"/><path fill="#006099" d="M289 238c-11.72 19.015-27.441 35.293-46.088 47.72-18.647 12.427-39.778 20.709-61.949 24.28-27.978-6.1-40.197-20.136-40.197-20.136s-9.783-20.718 16.703-27.627C183.955 255.329 236.828 280.173 289 238z"/><path fill="#E1E1E1" d="M183.615 111.671c.424-1.482.896-2.874 1.385-4.192-5.684-.116-11.313-1.136-16.679-3.022-4.481-1.596-8.237-3.651-13.925-6.7629-3.316-1.8178-5.874-3.2752-8.083-4.7-11.333-7.1972-25.299-17.9645-25.299-19.0617V59.9473c-6.958 2.8003-23.629 5.5924-23.629 5.5924s-2.7785-2.7921-12.5153-5.5924c-5.426-1.6331-11.0354-2.5712-16.6952-2.7921 0 0 0-1.4002-8.3435-12.585-1.6296-2.1944-3.5525-4.5526-5.5569-6.9189C46.0528 27.9321 36.1775 18 36.1775 18s-5.5651 9.8256-6.9503 18.1774c-1.3851 8.3518-2.7865 13.977-2.7865 13.977s-2.7785-1.4002-2.7785-4.1923c0-2.7921-2.7866 4.1923-2.7866 4.1923s-1.3933 18.1774-2.7785 26.5619c-1.3851 8.3846-1.7436 9.8257-1.7436 9.8257C6.85358 105.734 1.36425 126.677.2236 148.081-.91706 169.486 2.31513 190.898 9.72104 211c4.47876-10.374 10.08606-20.219 16.71966-29.354 11.1301-15.377 23.629-22.37 38.9554-29.354 10.8983-4.805 22.0506-9.007 33.4066-12.585l-5.6139-1.441c-5.5651-1.4-12.5153-5.593-12.5153-5.593 17.5802 1.432 35.2245 1.899 52.8555 1.4 0 0 19.441-.589 36.772-5.608 3.35-.989 6.619-2.238 9.778-3.734.611-.295 1.1-.549 1.409-.712.261-4.182.974-8.322 2.127-12.348zM47.2668 61.9779c-.7088.4667-1.9555-1.6867-3.9762-1.4902-2.3792.2292-4.0739 3.5454-5.1902 6.7797.0815-.6141.2444-1.8997.4318-3.5209 1.2059-10.8655 1.157-20.7157 1.6296-20.7239 0 0 .0652.0491.1467.1474.2231.2645.3796.579.4563.9171.2688 1.0808 8.4005 16.638 6.502 17.8908zm69.5752 39.9081c.034.557-.05 1.115-.244 1.638-.383.86-1.369 1.719-3.936 2.571-4.171 1.4-11.122 0-11.122 0l2.241-2.743c1.157-1.056 2.746-2.456 4.71-4.2332 1.039-.8932 2.16-1.6855 3.348-2.3664 1.785-1.0235 2.6-1.1545 3.137-.8188.22.1229.375.303.644.8762.783 1.578 1.201 3.3132 1.222 5.0762z"/><path fill="#006099" d="M53.9936 60.4177c-.3575 2.3708-3.2501 2.2237-9.6446 6.9653-4.7938 3.5644-6.5001 6.1397-7.7352 5.5265-1.0644-.5314-.4875-2.7632-.1706-8.0199.3169-5.2567.3088-12.5981 1.9744-20.7489.1544-.7766.4063-1.9457 1.1132-2.1337 1.3894-.3924 14.8041 15.8764 14.4628 18.4107zM116.674 101.607c-.065 1.032-.522 2.005-1.285 2.735-.763.73-1.778 1.167-2.853 1.227-3.646.575-7.366.575-11.012 0l-.524-.387c1.304-2.505 2.93-4.845 4.84-6.9638 1.614-1.7643 2.42-2.2673 3.187-2.5923 2.194-.9131 5.646-1.006 7.203.944 1.138 1.4471.767 3.4048.444 5.0371zM194.348 117.632c-.861.816-1.82 1.503-2.851 2.044-.914.48-1.726.892-2.413 1.237-1.523.757-2.859 1.421-4.593 2.136-.952.387-1.796.707-2.491.951.052-4.275.654-8.521 1.789-12.618.406-1.46.881-2.897 1.421-4.306 1.499-.059 2.827-.076 3.952-.076 1.492 0 2.546 0 3.905.101s2.796.294 3.905.488c.031.294.383 7.108-2.624 10.043z"/><path fill="#fff" d="M170.191 246c-.528 0 .276 7.821-2.656 12.154-2.931 4.334-8.535 3.099-8.535 3.836 0 .738 5.539-.654 8.535 3.754 3.094 4.565 2.055 13.256 2.502 13.256.446 0-.52-8.708 2.623-13.256 2.98-4.309 8.34-2.983 8.34-3.754 0-.77-5.425.556-8.34-3.836-2.916-4.391-1.941-12.146-2.469-12.154zM261.822 57c-.886 0 .467 13.0235-4.47 20.2597C252.286 84.6669 243 82.4203 243 83.6494c0 1.2291 9.318-1.0989 14.352 6.2513 5.211 7.6025 3.463 22.0913 4.212 22.0993.749.008-.877-14.5131 4.414-22.0993 5.01-7.1792 14.022-4.9815 14.022-6.2513s-9.125.9116-14.054-6.4141-3.222-20.219-4.124-20.2353zM254.5 261c3.038 0 5.5-2.462 5.5-5.5s-2.462-5.5-5.5-5.5-5.5 2.462-5.5 5.5 2.462 5.5 5.5 5.5zM147.5 211c1.933 0 3.5-1.567 3.5-3.5s-1.567-3.5-3.5-3.5-3.5 1.567-3.5 3.5 1.567 3.5 3.5 3.5zM153.5 29c3.038 0 5.5-2.6863 5.5-6s-2.462-6-5.5-6-5.5 2.6863-5.5 6 2.462 6 5.5 6z"/><path fill="#fff" d="M150 44c1.105 0 2-.8954 2-2s-.895-2-2-2-2 .8954-2 2 .895 2 2 2zM277 97c1.105 0 2-.8954 2-2s-.895-2-2-2-2 .8954-2 2 .895 2 2 2zM150 201c1.105 0 2-.895 2-2s-.895-2-2-2-2 .895-2 2 .895 2 2 2z" opacity=".64"/><path fill="#fff" d="M280.5 155c1.381 0 2.5-1.343 2.5-3s-1.119-3-2.5-3-2.5 1.343-2.5 3 1.119 3 2.5 3zM264 249c1.105 0 2-1.119 2-2.5s-.895-2.5-2-2.5-2 1.119-2 2.5.895 2.5 2 2.5z" opacity=".83"/><path fill="#fff" d="M220.5 152c1.933 0 3.5-1.567 3.5-3.5s-1.567-3.5-3.5-3.5-3.5 1.567-3.5 3.5 1.567 3.5 3.5 3.5z"/><path fill="#006099" d="M442.996 96.1671v96.6659c.018.289-.025.578-.128.849-.102.27-.261.516-.466.721-.205.204-.451.363-.722.465-.271.103-.561.146-.85.128h-18.05c-.289.018-.579-.025-.85-.128-.271-.102-.517-.261-.722-.465-.205-.205-.364-.451-.466-.721-.103-.271-.146-.56-.128-.849V155.29h-35.228v37.543c.018.289-.025.578-.128.849-.102.27-.261.516-.466.721-.205.204-.451.363-.722.465-.271.103-.561.146-.85.128h-18.05c-.289.018-.579-.025-.85-.128-.271-.102-.517-.261-.722-.465-.205-.205-.364-.451-.466-.721-.103-.271-.146-.56-.128-.849V96.1671c-.018-.2888.025-.5781.128-.8488.102-.2707.261-.5165.466-.7211.205-.2047.451-.3634.722-.4657.271-.1022.561-.1457.85-.1275h18.05c.289-.0182.579.0253.85.1275.271.1023.517.261.722.4657.205.2046.364.4504.466.7211.103.2707.146.56.128.8488v39.4819h35.228V96.1671c-.018-.2888.025-.5781.128-.8488.102-.2707.261-.5165.466-.7211.205-.2047.451-.3634.722-.4657.271-.1022.561-.1457.85-.1275h18.05c.289-.0182.579.0253.85.1275.271.1023.517.261.722.4657.205.2046.364.4504.466.7211.103.2707.146.56.128.8488zM456 144.574c-.015-10.192 2.995-20.159 8.649-28.64 5.653-8.48 13.695-15.093 23.109-18.9996 9.413-3.9071 19.774-4.9332 29.771-2.9484 9.997 1.9848 19.18 6.891 26.387 14.098 7.207 7.207 12.113 16.39 14.098 26.387 1.985 9.997.959 20.358-2.948 29.771-3.907 9.414-10.52 17.456-19 23.109-8.481 5.654-18.448 8.664-28.64 8.649-13.639 0-26.719-5.418-36.364-15.062-9.644-9.645-15.062-22.725-15.062-36.364zm80.71 0c-.126-5.745-1.943-11.326-5.225-16.043-3.282-4.717-7.883-8.361-13.226-10.476-5.343-2.116-11.192-2.608-16.813-1.415-5.622 1.192-10.766 4.016-14.791 8.118-4.024 4.102-6.749 9.3-7.834 14.944-1.084 5.643-.48 11.481 1.737 16.782 2.218 5.302 5.949 9.832 10.728 13.023 4.779 3.191 10.394 4.902 16.14 4.918 3.891-.01 7.741-.792 11.327-2.303 3.586-1.51 6.836-3.718 9.561-6.496 2.725-2.777 4.87-6.069 6.312-9.683 1.441-3.614 2.15-7.479 2.084-11.369zM657.996 96.1598v96.0692c.018.287-.025.574-.127.843-.101.269-.258.514-.46.717-.203.203-.446.361-.714.463-.268.101-.554.145-.84.126h-17.836c-.286.019-.572-.025-.84-.126-.268-.102-.511-.26-.714-.463-.202-.203-.359-.448-.46-.717-.101-.269-.144-.556-.126-.843v-78.575h-34.664v51.395c0 19.767-13.285 29.947-30.974 29.947-.368.025-.734-.073-1.041-.278a1.6841 1.6841 0 01-.657-.858l-5.437-17.495c-.08-.168-.116-.354-.104-.54.012-.186.072-.366.173-.522.102-.157.241-.284.406-.371.164-.086.348-.129.534-.123 6.692 0 14.761-4.028 14.761-14.06V96.1598c-.018-.287.025-.5746.126-.8436.102-.269.259-.5133.461-.7166.202-.2034.446-.3612.714-.4628.267-.1016.554-.1448.84-.1267h74.765c.291-.0294.586.0054.862.102.277.0966.53.2527.741.4573.21.2046.374.4528.48.7275.105.2747.15.5691.131.8629zM674.248 194.996c-.299.018-.6-.025-.88-.128-.281-.102-.536-.261-.749-.465-.212-.205-.376-.451-.483-.722-.106-.271-.151-.56-.132-.849V96.1681c-.019-.2889.026-.5784.132-.8492.107-.2708.271-.5167.483-.7214.213-.2048.468-.3636.749-.4659.28-.1023.581-.1458.88-.1276h18.701c.299-.0182.599.0253.88.1276.281.1023.536.2611.748.4659.213.2047.377.4506.483.7214.106.2708.152.5603.133.8492v31.8899h10.91c25.123 0 38.897 13.855 38.897 33.481 0 19.627-13.774 33.457-38.897 33.457h-31.855zm20.945-47.262v27.362h10.317c8.228 0 17.204-3.035 17.204-13.706s-8.976-13.706-17.204-13.706l-10.317.05zM873.234 194.946h-21.176c-.489.029-.976-.076-1.41-.304-.434-.227-.799-.569-1.056-.989l-27.832-39.084-7.593 8.802v29.462c.018.289-.026.578-.127.849-.101.27-.259.516-.462.721-.202.204-.446.363-.715.465-.268.103-.555.146-.841.128h-17.873c-.287.018-.574-.025-.842-.128-.268-.102-.512-.261-.715-.465-.203-.205-.36-.451-.462-.721-.101-.271-.144-.56-.126-.849V96.1671a2.0617 2.0617 0 01.126-.8488c.102-.2707.259-.5165.462-.7211.203-.2047.447-.3634.715-.4657.268-.1022.555-.1457.842-.1275h17.873c.286-.0182.573.0253.841.1275.269.1023.513.261.715.4657.203.2046.361.4504.462.7211.101.2707.145.56.127.8488V133.66l31.308-38.4874c.297-.3695.673-.6665 1.1-.8688.427-.2024.894-.3048 1.366-.2998h22.31c1.849 0 2.145 1.3177 1.134 2.6106l-35.031 40.7994 38.162 54.947c.986 1.442.419 2.585-1.282 2.585zM943.996 177.368v15.465c.018.289-.025.578-.129.849-.103.27-.263.516-.469.721-.206.204-.454.363-.727.465-.273.103-.564.146-.855.128h-54.632c-.291.018-.582-.025-.855-.128-.273-.102-.521-.261-.727-.465-.206-.205-.366-.451-.469-.721-.104-.271-.147-.56-.129-.849V96.1671c-.018-.2888.025-.5781.129-.8488.103-.2707.263-.5165.469-.7211.206-.2047.454-.3634.727-.4657.273-.1022.564-.1457.855-.1275h54.506c.292-.0182.583.0253.856.1275.273.1023.521.261.727.4657.206.2046.366.4504.469.7211.103.2707.147.56.129.8488v15.4399c.018.289-.026.578-.129.849-.103.27-.263.516-.469.721-.206.204-.454.363-.727.465-.273.103-.564.146-.856.128h-34.132v19.766h32.103c.291-.019.582.025.855.127.273.102.521.261.727.466.206.204.366.45.469.721.103.27.147.56.129.849v15.414c.018.289-.026.579-.129.849-.103.271-.263.517-.469.721-.206.205-.454.364-.727.466-.273.102-.564.146-.855.127h-32.103v21.929h34.283c.289-.014.578.032.847.136.27.104.515.263.718.467.204.204.362.449.463.718.102.269.145.556.127.842zM1047 96.1538v96.0752c.01.287-.03.575-.13.844s-.26.513-.46.717c-.2.203-.45.361-.71.462-.27.102-.56.145-.84.127h-17.83c-.29.018-.57-.025-.84-.127-.27-.101-.51-.259-.71-.462-.2-.204-.36-.448-.46-.717-.1-.269-.15-.557-.13-.844v-78.58h-34.742v51.398c0 19.769-13.277 29.95-30.956 29.95-.37.022-.738-.076-1.048-.281-.31-.205-.546-.505-.673-.856l-5.409-17.495c-.063-.179-.078-.371-.044-.558.034-.186.116-.361.237-.506.122-.144.28-.255.457-.32s.368-.082.554-.049c6.688 0 14.753-4.028 14.753-14.061V96.1538c-.018-.287.025-.5745.126-.8436.101-.269.258-.5133.461-.7167.202-.2033.445-.3612.713-.4628.268-.1016.554-.1448.839-.1267h74.722c.29-.0145.57.0315.83.1347.27.1033.51.2616.71.4645.2.203.35.446.45.7132.1.2672.14.5526.13.8374zM1066.16 194.996c-.29.018-.58-.025-.85-.128-.27-.102-.51-.261-.72-.465-.2-.205-.36-.451-.46-.722-.1-.271-.14-.56-.13-.849V96.1681c-.01-.2889.03-.5784.13-.8492.1-.2708.26-.5167.46-.7214.21-.2048.45-.3636.72-.4659.27-.1023.56-.1458.85-.1276h17.92c.29-.0178.58.0257.85.1278s.51.2605.72.4647c.2.2043.37.4499.47.7207.1.2708.15.5608.14.8509v31.8899h10.45c24.09 0 37.29 13.855 37.29 33.481 0 19.627-13.2 33.457-37.29 33.457h-30.55zm20.1-47.262v27.362h9.89c7.88 0 16.49-3.035 16.49-13.706s-8.61-13.706-16.49-13.706l-9.89.05zM1220 165.868c0 19.178-11.78 29.128-37 29.128h-34.87c-.28.018-.57-.025-.83-.128-.27-.102-.51-.261-.71-.465-.2-.205-.36-.451-.46-.722-.1-.271-.14-.56-.13-.849V96.1681c-.01-.2889.03-.5784.13-.8492.1-.2708.26-.5167.46-.7214.2-.2048.44-.3636.71-.4659.26-.1023.55-.1458.83-.1276h34.73c19.55 0 29.76 11.691 29.76 26.119 0 10.547-5.67 18.183-12.05 20.919 5.47 1.385 10.34 4.568 13.86 9.057 3.51 4.488 5.47 10.031 5.57 15.769zm-39.1-52.088H1168v19.402h12.9c6.67 0 11.19-3.035 11.19-10.099 0-7.065-4.69-9.303-11.21-9.303h.02zm17.11 49.351c0-8.383-5.97-11.542-14.18-11.542h-15.88v23.656h15.88c8.53 0 14.2-3.905 14.2-12.213l-.02.099zM1314 96.1671v96.6659c.01.289-.03.578-.13.849-.11.27-.27.516-.47.721-.21.204-.46.363-.73.465-.28.103-.57.146-.86.128h-18.25c-.29.018-.59-.025-.86-.128-.28-.102-.52-.261-.73-.465-.21-.205-.37-.451-.47-.721-.11-.271-.15-.56-.13-.849v-62.902l-35.92 63.573c-.24.449-.6.823-1.05 1.078-.44.255-.95.381-1.47.364h-20.74c-.29.018-.58-.025-.86-.127-.27-.103-.52-.261-.73-.466-.2-.204-.36-.45-.47-.721-.1-.271-.14-.56-.13-.849V96.1671c-.01-.2888.03-.5781.13-.8488.11-.2707.27-.5165.47-.7211.21-.2047.46-.3634.73-.4657.28-.1022.57-.1457.86-.1275h18.25c.29-.0182.59.0253.86.1275.28.1023.52.261.73.4657.21.2046.37.4504.47.7211.11.2707.15.56.13.8488v63.0269l36.07-63.748c.25-.4455.61-.8158 1.05-1.0702.45-.2543.95-.383 1.47-.3718h20.59c.29-.0182.58.0253.86.1275.27.1023.52.261.73.4657.2.2046.36.4504.47.7211.1.2707.14.56.13.8488zM1409 96.1671v96.6659c.01.289-.03.578-.13.849-.1.27-.26.516-.47.721-.2.204-.45.363-.72.465-.27.103-.56.146-.85.128h-18.04c-.29.018-.58-.025-.85-.128-.27-.102-.52-.261-.72-.465-.21-.205-.37-.451-.47-.721-.1-.271-.15-.56-.13-.849V155.29h-35.24v37.543c.02.289-.03.578-.13.849-.1.27-.26.516-.47.721-.2.204-.45.363-.72.465-.27.103-.56.146-.85.128h-18.04c-.29.018-.58-.025-.85-.128-.27-.102-.52-.261-.72-.465-.21-.205-.37-.451-.47-.721-.1-.271-.14-.56-.13-.849V96.1671c-.01-.2888.03-.5781.13-.8488.1-.2707.26-.5165.47-.7211.2-.2047.45-.3634.72-.4657.27-.1022.56-.1457.85-.1275h18.04c.29-.0182.58.0253.85.1275.27.1023.52.261.72.4657.21.2046.37.4504.47.7211.1.2707.15.56.13.8488v39.4819h35.24V96.1671c-.02-.2888.03-.5781.13-.8488.1-.2707.26-.5165.47-.7211.2-.2047.45-.3634.72-.4657.27-.1022.56-.1457.85-.1275h18.17c.27-.0005.55.0561.81.1662.25.1102.48.2715.67.4742.2.2027.34.4424.44.7043.09.2619.13.5404.12.8184z"/></svg>