<svg xmlns="http://www.w3.org/2000/svg" width="1067" height="301" fill="none"><defs/><path fill="#C4C4C4" d="M360 179.92v28.16a.9.9 0 01-.25.66.85.85 0 01-.64.26h-3.5a.81.81 0 01-.64-.25.86.86 0 01-.24-.67v-11.76h-16.46v11.76a.88.88 0 01-.24.67.83.83 0 01-.65.25h-3.49a.82.82 0 01-.64-.25.87.87 0 01-.25-.67v-28.16a.88.88 0 01.25-.67.82.82 0 01.65-.25h3.48a.81.81 0 01.65.25.86.86 0 01.24.67v11.76h16.46v-11.76a.88.88 0 01.24-.67.83.83 0 01.65-.25h3.49a.82.82 0 01.64.25.87.87 0 01.25.67zM395 179.5v27.87a.87.87 0 01-.25.66.82.82 0 01-.63.24h-3.23a.86.86 0 01-.81-.55.92.92 0 01-.07-.35l-.24-3.34a12.14 12.14 0 01-4.3 3.69c-1.7.86-3.56 1.3-5.45 1.28-8.14 0-14.02-6.85-14.02-15.5s5.88-15.5 14.02-15.5c1.9-.01 3.78.44 5.49 1.31a12.3 12.3 0 014.33 3.7l.17-3.54a.88.88 0 01.54-.84c.1-.05.22-.07.34-.06h3.23a.79.79 0 01.65.26.85.85 0 01.23.68zm-5.06 13.93a10.05 10.05 0 00-2.56-7.29 9.23 9.23 0 00-13.79 0 9.83 9.83 0 00-2.55 7.29c0 6.06 4.03 10.64 9.5 10.64a9.52 9.52 0 006.86-3.29 10.16 10.16 0 002.54-7.35zM425.93 180l-14.87 38.3c-.08.2-.23.4-.41.52-.2.13-.41.19-.64.18h-3.38c-.62 0-.98-.36-.69-1l3.99-10.06L399.09 180c-.24-.65 0-1 .7-1h3.5a1.06 1.06 0 011.05.7l8.18 22.06 8.19-22.05c.07-.22.21-.4.4-.53a1 1 0 01.63-.18h3.58c.54-.05.82.35.6 1zM458 179.92v28.16a.86.86 0 01-.92.92h-3.58a.86.86 0 01-.92-.92V196.2a14.34 14.34 0 01-11.02 5.14c-5.38 0-11.56-2.63-11.56-11.69v-9.73a.86.86 0 01.92-.92h3.67a.86.86 0 01.91.92v9.55c0 5.15 2.76 7.34 7.17 7.34a12.29 12.29 0 009.93-5.76v-11.13a.86.86 0 01.92-.92h3.58a.87.87 0 01.85.56c.04.12.06.24.05.36zM490 179.92v28.16a.88.88 0 01-.25.67.82.82 0 01-.65.25h-3.48a.81.81 0 01-.65-.25.86.86 0 01-.24-.67v-11.76h-16.46v11.76a.88.88 0 01-.24.67.83.83 0 01-.65.25h-3.49a.84.84 0 01-.83-.56.9.9 0 01-.06-.36v-28.16a.88.88 0 01.25-.67.82.82 0 01.65-.25h3.48a.81.81 0 01.65.25.86.86 0 01.24.67v11.76h16.46v-11.76a.88.88 0 01.24-.67.83.83 0 01.65-.25h3.49a.82.82 0 01.64.25.87.87 0 01.25.67zM522.32 199.01c0 6.31-4.33 9.99-12.2 9.99h-13.25a.79.79 0 01-.63-.25.88.88 0 01-.24-.67v-28.16a.9.9 0 01.24-.67.79.79 0 01.63-.25h3.5a.79.79 0 01.64.25.87.87 0 01.24.67v9.12h8.87c7.88 0 12.2 3.6 12.2 9.97zm-5.03 0c0-3.58-2.15-5.38-7.05-5.38h-9v10.9h9c4.9-.07 7.05-1.97 7.05-5.52zm15.7-19.1v28.17a.92.92 0 01-.24.66.83.83 0 01-.62.26h-3.42a.8.8 0 01-.64-.25.88.88 0 01-.25-.67v-28.16a.92.92 0 01.25-.67.8.8 0 01.64-.25h3.42a.79.79 0 01.63.25.88.88 0 01.24.67zM566 180.46v27.64a.86.86 0 01-.54.85.81.81 0 01-.34.05h-3.45a.81.81 0 01-.64-.25.85.85 0 01-.24-.65v-21.94l-14.91 22.24a1.33 1.33 0 01-1.12.6h-4.88a.81.81 0 01-.64-.25.85.85 0 01-.24-.65v-27.64a.86.86 0 01.24-.65.83.83 0 01.64-.25h3.45a.82.82 0 01.83.55c.04.11.06.23.05.35v22.3l15.06-22.6a1.34 1.34 0 011.13-.6h4.65a.82.82 0 01.9.53c.04.12.06.24.05.37zm-21.55-12.56c0-.6.24-.9.83-.9H547c.23 0 .46.07.63.23.18.16.28.38.3.62a5.11 5.11 0 001.79 2.72 4.93 4.93 0 006.08 0 5.11 5.11 0 001.79-2.72.94.94 0 01.3-.62.9.9 0 01.64-.23h1.73c.6 0 .9.3.83.9a8.7 8.7 0 01-2.9 5.16 8.38 8.38 0 01-10.94 0 8.7 8.7 0 01-2.89-5.16h.09zM623 179.92v28.16a.89.89 0 01-.55.86.85.85 0 01-.35.06h-3.59a.84.84 0 01-.65-.25.88.88 0 01-.26-.67v-19.95l-9.49 20.19c-.09.2-.23.37-.4.5-.19.11-.4.18-.62.18h-4.24a1.07 1.07 0 01-1.01-.68l-9.53-20.08v19.84a.88.88 0 01-.55.86.83.83 0 01-.36.06h-3.5a.85.85 0 01-.65-.26.88.88 0 01-.25-.66v-28.16a.88.88 0 01.25-.67.84.84 0 01.65-.25h4.98a1.12 1.12 0 011.02.66l11.18 23.4 11.2-23.4c.1-.2.23-.36.42-.48.18-.12.39-.18.6-.18h4.84a.83.83 0 01.81.56c.04.12.06.24.05.36zM657 179.5v27.87a.84.84 0 01-.56.85.85.85 0 01-.35.05h-3.34a.87.87 0 01-.65-.26.89.89 0 01-.26-.64l-.25-3.34a12.45 12.45 0 01-10.08 4.97c-8.43 0-14.51-6.85-14.51-15.5s6.08-15.5 14.5-15.5a12.59 12.59 0 0110.14 5.02l.2-3.55a.86.86 0 01.55-.84.88.88 0 01.36-.06h3.34a.85.85 0 01.86.57c.04.12.06.24.04.37zm-5.23 13.93a9.76 9.76 0 00-9.78-10.36 9.82 9.82 0 00-9.21 6.44 9.74 9.74 0 00-.57 3.92c0 6.06 4.18 10.64 9.83 10.64a10.13 10.13 0 009.73-10.64zM681 179.92v2.76a.9.9 0 01-.24.66.81.81 0 01-.63.25h-12.9v24.5a.92.92 0 01-.23.65.83.83 0 01-.63.26h-3.49a.8.8 0 01-.63-.25.88.88 0 01-.25-.67v-28.16a.92.92 0 01.25-.67.8.8 0 01.63-.25h17.25a.77.77 0 01.63.25.88.88 0 01.24.67zM711 179.5v27.87a.87.87 0 01-.25.66.82.82 0 01-.63.24h-3.23a.86.86 0 01-.81-.55.92.92 0 01-.07-.35l-.24-3.34a12.13 12.13 0 01-4.3 3.69c-1.7.86-3.56 1.3-5.45 1.28-8.14 0-14.02-6.85-14.02-15.5s5.88-15.5 14.02-15.5c1.9-.01 3.78.44 5.48 1.3 1.7.88 3.18 2.15 4.32 3.72l.2-3.55a.88.88 0 01.53-.84c.1-.05.22-.07.34-.06h3.23a.79.79 0 01.65.26c.08.09.15.2.19.31.03.12.05.24.03.37zm-5.16 13.93a10.05 10.05 0 00-2.56-7.29 9.23 9.23 0 00-13.79 0 9.83 9.83 0 00-2.56 7.29c0 6.06 4.04 10.64 9.5 10.64a9.52 9.52 0 006.87-3.29 10.16 10.16 0 002.54-7.35zM736 199.75c0 5.38-4.41 9.23-10.46 9.23-1.71.1-3.42-.19-5-.85-1.6-.67-3.02-1.7-4.17-3a1.14 1.14 0 01.12-1.8l1.57-1.57c.48-.5 1.02-.38 1.6.18a7.83 7.83 0 005.73 2.26c3.2 0 5.71-1.96 5.71-4.82 0-2.87-2.58-4.79-6.7-4.79a1.26 1.26 0 01-1-.31 1.34 1.34 0 01-.44-.96v-1.47a1.4 1.4 0 01.4-1.04 1.32 1.32 0 011.03-.37c3.49 0 5.6-1.8 5.6-4.03 0-2.24-1.97-3.68-4.59-3.68a7.9 7.9 0 00-5.05 2.01 1.27 1.27 0 01-.93.42 1.22 1.22 0 01-.92-.42l-1.25-1.34a1.04 1.04 0 010-1.65 10.7 10.7 0 018.45-3.74c5.23 0 9.22 3.36 9.22 8.02a7.82 7.82 0 01-1.12 3.58 7.56 7.56 0 01-2.63 2.6 8.08 8.08 0 013.5 3.03 8.42 8.42 0 011.33 4.51zM768 179.92v28.16c0 .13-.02.25-.06.36a.89.89 0 01-.18.3.8.8 0 01-.6.26h-3.4a.75.75 0 01-.34-.06.82.82 0 01-.29-.2.9.9 0 01-.24-.66v-22.36l-14.26 22.67c-.12.19-.28.34-.47.45-.18.1-.4.16-.6.16h-4.7a.75.75 0 01-.33-.06.8.8 0 01-.29-.2.93.93 0 01-.24-.66v-28.16a.93.93 0 01.24-.67.8.8 0 01.29-.2c.1-.04.22-.06.33-.05h3.32a.8.8 0 01.62.25c.08.09.14.2.19.3.04.12.06.24.05.37v22.71l14.6-23.02c.13-.19.29-.35.48-.45.18-.11.4-.16.6-.16h4.48c.11 0 .22.03.32.07a.82.82 0 01.43.5c.04.11.05.23.05.35zM801 179.92v28.16a.9.9 0 01-.24.67.83.83 0 01-.65.25h-3.55a.81.81 0 01-.64-.25.89.89 0 01-.25-.67v-11.76h-16.34v11.76a.9.9 0 01-.25.67.81.81 0 01-.64.25h-3.55a.8.8 0 01-.65-.25.87.87 0 01-.24-.67v-28.16a.9.9 0 01.24-.67.83.83 0 01.65-.25h3.55a.81.81 0 01.64.25.89.89 0 01.25.67v11.76h16.34v-11.76a.9.9 0 01.25-.67.84.84 0 01.64-.25h3.55a.8.8 0 01.65.25.87.87 0 01.24.67zM389 79.5v67a1.4 1.4 0 01-.92 1.4c-.2.08-.4.11-.6.1h-12.63a1.44 1.44 0 01-1.43-.91 1.4 1.4 0 01-.09-.6v-26.01h-24.66v26.02a1.4 1.4 0 01-.92 1.4c-.2.08-.4.11-.6.1h-12.63a1.44 1.44 0 01-1.43-.91 1.4 1.4 0 01-.09-.6V79.5a1.4 1.4 0 01.92-1.4c.2-.08.4-.11.6-.1h12.63a1.45 1.45 0 011.43.91c.07.2.1.4.09.6v27.36h24.66V79.5a1.4 1.4 0 01.92-1.4c.2-.08.4-.11.6-.1h12.63a1.45 1.45 0 011.43.91c.07.2.1.4.09.6zM398 113.05a36 36 0 1172-.1 36 36 0 01-72 .1zm56.42 0a20.42 20.42 0 10-20.47 20.87 20.5 20.5 0 0020.47-20.87zM539 79.5v66.58a1.4 1.4 0 01-1.49 1.49h-12.4a1.38 1.38 0 01-1.07-.4 1.4 1.4 0 01-.4-1.1V91.63h-24.1v35.62c0 13.7-9.22 20.76-21.5 20.76a1.15 1.15 0 01-1.19-.79l-3.78-12.13a.75.75 0 01.05-.73.75.75 0 01.65-.34c4.65 0 10.26-2.8 10.26-9.75V79.5a1.4 1.4 0 011.49-1.5h51.94a1.4 1.4 0 011.54 1.5zM550.57 148a1.53 1.53 0 01-1.14-.41 1.4 1.4 0 01-.43-1.1V79.5a1.36 1.36 0 01.43-1.09 1.48 1.48 0 011.14-.4h13.06a1.54 1.54 0 011.14.4 1.4 1.4 0 01.43 1.1v22.1h7.63c17.55 0 27.17 9.6 27.17 23.2S590.38 148 572.83 148h-22.26zm14.63-32.76v18.97h7.21c5.75 0 12.02-2.1 12.02-9.5s-6.27-9.5-12.02-9.5l-7.2.03zM689.77 147.96h-14.8a1.9 1.9 0 01-1.73-.9l-19.44-27.08-5.31 6.1v20.42a1.42 1.42 0 01-1.5 1.5H634.5a1.4 1.4 0 01-1.5-1.5v-67a1.4 1.4 0 01.91-1.4c.2-.08.4-.11.6-.1h12.48a1.41 1.41 0 011.5 1.5v25.99l21.88-26.68a2.2 2.2 0 011.72-.8h15.6c1.28 0 1.49.9.78 1.8L664 108.1l26.67 38.08c.7 1 .3 1.8-.9 1.8zM739 135.78v10.72a1.39 1.39 0 01-.42 1.09 1.44 1.44 0 01-1.1.4h-37.96a1.44 1.44 0 01-1.43-.9c-.07-.2-.1-.4-.09-.6V79.5a1.39 1.39 0 01.42-1.09 1.44 1.44 0 011.1-.4h37.88a1.45 1.45 0 011.1.4 1.42 1.42 0 01.41 1.1v10.7a1.4 1.4 0 01-.92 1.4c-.19.07-.4.1-.6.1h-23.71v13.7h22.3a1.43 1.43 0 011.43.9c.07.19.1.39.09.59v10.68a1.4 1.4 0 01-.92 1.41c-.2.08-.4.1-.6.1h-22.3v15.2h23.82a1.45 1.45 0 011.09.4 1.42 1.42 0 01.4 1.09zM811 79.5v66.58a1.4 1.4 0 01-1.49 1.49h-12.38a1.41 1.41 0 01-1.4-.9c-.07-.2-.1-.4-.09-.59V91.62H771.5v35.62c0 13.7-9.22 20.76-21.5 20.76a1.2 1.2 0 01-1.2-.79l-3.76-12.13a.76.76 0 01.14-.73.75.75 0 01.7-.26c4.65 0 10.25-2.79 10.25-9.74V79.49a1.42 1.42 0 01.9-1.4c.19-.07.39-.1.59-.09h51.9a1.4 1.4 0 011.48 1.5zM824.5 148a1.42 1.42 0 01-1.5-1.5v-67a1.4 1.4 0 01.42-1.09 1.41 1.41 0 011.09-.4h12.55a1.44 1.44 0 011.52 1.5v22.1h7.32c16.86 0 26.1 9.6 26.1 23.2S862.76 148 845.9 148h-21.4zm14.08-32.76v18.97h6.92c5.52 0 11.55-2.1 11.55-9.5s-6.03-9.5-11.55-9.5l-6.92.03zM932 127.8c0 13.3-8.28 20.2-26 20.2h-24.5a1.4 1.4 0 01-1.4-.91 1.4 1.4 0 01-.1-.6V79.5a1.4 1.4 0 011.5-1.5h24.4c13.74 0 20.91 8.1 20.91 18.1 0 7.32-3.98 12.6-8.46 14.5A18.12 18.12 0 01932 127.8zm-27.48-36.1h-9.06v13.46h9.06c4.7 0 7.87-2.1 7.87-7s-3.3-6.45-7.88-6.45h.01zm12.02 34.21c0-5.8-4.18-8-9.95-8h-11.17v16.4h11.17c5.99 0 9.97-2.7 9.97-8.47l-.01.07zM998 79.5v67a1.37 1.37 0 01-.42 1.09 1.45 1.45 0 01-1.12.4h-12.82a1.48 1.48 0 01-1.11-.4 1.4 1.4 0 01-.43-1.1V102.9l-25.22 44.06a1.96 1.96 0 01-1.77 1h-14.57a1.5 1.5 0 01-1.12-.4 1.4 1.4 0 01-.42-1.1V79.5a1.38 1.38 0 01.42-1.09 1.45 1.45 0 011.12-.4h12.82a1.48 1.48 0 011.11.4 1.4 1.4 0 01.43 1.1v43.67L980.23 79a2 2 0 011.77-1h14.46a1.48 1.48 0 011.12.41 1.4 1.4 0 01.42 1.1zM1064 79.5v67c.01.2-.02.4-.09.59a1.44 1.44 0 01-1.43.9h-12.63a1.42 1.42 0 01-1.1-.4 1.6 1.6 0 01-.33-.5c-.07-.2-.1-.4-.09-.6v-26.01h-24.66v26.02c.01.2-.02.4-.09.59a1.42 1.42 0 01-1.43.91h-12.63c-.2.01-.41-.02-.6-.1a1.44 1.44 0 01-.83-.82c-.07-.18-.1-.38-.09-.58v-67c-.01-.2.02-.4.09-.59a1.44 1.44 0 011.43-.9h12.63a1.43 1.43 0 011.1.4c.14.15.25.32.33.5.07.2.1.4.09.6v27.36h24.66V79.5c-.01-.2.02-.4.09-.59a1.42 1.42 0 011.43-.91h12.72c.19 0 .39.04.57.12.18.07.34.19.47.33.13.14.24.3.3.48.07.19.1.38.09.57z"/><path stroke="#B7B7B7" stroke-linecap="round" stroke-miterlimit="10" stroke-width="4.99" d="M11.2 199.01c7.03 15.07 22.15 41.98 51.74 64.37 46.33 35.05 96.51 35.1 112.28 34.48"/><path stroke="#B7B7B7" stroke-miterlimit="10" stroke-width="5" d="M142.47 91.19c-10.8-6.83-24.12-17.04-24.12-18.08V59.84c-6.63 2.66-22.54 5.3-22.54 5.3s-.66-.65-2.49-1.65a37.5 37.5 0 00-9.45-3.65 114.94 114.94 0 00-15.44-2.64 180.22 180.22 0 00-13.71-18.51 147.74 147.74 0 0174.06-34.13"/><path stroke="#B7B7B7" stroke-linejoin="round" stroke-miterlimit="10" stroke-width="5" d="M252.68 101.68c-5.86 25.88-22.06 42.43-28.42 48.92-6.98 7.12-13.35 12.59-27.74 20.81-27.85 15.92-67.64 22.55-83.55 78.25-2.36-7.32-7.65-27.06 0-49.07a76 76 0 0131.81-39.5c4.2-2.46 8.33-5.03 12.54-7.47.52-.3 2.23-1.32 4.43-2.8 0 0 1-.69 2.02-1.43 12.11-8.9 15.84-14.07 15.84-14.07 4.98-6.91 7.25-15.16 7.68-18.9l.13-1.1c.24-1.61.56-2.77.63-3.1.26-1 .47-2.6.24-5.16-.28-.33-.7-.75-1.29-1.1-1.58-.99-3.38-.96-4.77-.93l-2.1.04-.84.03c-6.96.16-15.82-2.96-15.82-2.96-4.76-1.68-8-3.44-13.35-6.32a158.15 158.15 0 01-7.71-4.46M128.7 4.73C136.1 3.6 143.7 3 151.43 3a147.88 147.88 0 0188.49 29.24 238.98 238.98 0 0112.6 27.27"/><path stroke="#B7B7B7" stroke-linecap="round" stroke-linejoin="round" stroke-miterlimit="10" stroke-width="5" d="M252.51 59.5a146.65 146.65 0 00-12.25-27.05 146.98 146.98 0 0139.41 43.73c12.8 21.73 17.43 43.03 19.25 56.85"/><path stroke="#B7B7B7" stroke-linejoin="round" stroke-miterlimit="10" stroke-width="5" d="M150.44 288.77c-12.06-5.7-28.73-16.35-35.8-34.92-.5-1.33-.94-2.66-1.33-3.98 15.92-55.69 55.7-62.32 83.55-78.24 14.03-8.02 20.44-13.4 27.74-20.81 22-22.32 28.09-47.54 28.09-47.54"/><path stroke="#B7B7B7" stroke-linecap="round" stroke-miterlimit="10" stroke-width="5" d="M162.4 250.9c-3.5.1-6.7.47-9.57 1.23-25.2 6.63-15.91 26.52-15.91 26.52M298.88 132.73c.75 6.1 1.15 12.3 1.15 18.6 0 28.44-8 55.02-21.86 77.59-37.66 30.66-75.75 24.37-102.96 22.4"/><path stroke="#B7B7B7" stroke-linejoin="round" stroke-miterlimit="10" stroke-width="5" d="M177.05 251.47c27.06 2.08 64.3 7.42 101.13-22.55a148.56 148.56 0 01-102.96 69.06c-26.66-5.86-38.3-19.34-38.3-19.34s-9.28-19.88 15.91-26.52a40.73 40.73 0 018.19-1.17"/><path stroke="#B7B7B7" stroke-linecap="round" stroke-linejoin="round" stroke-miterlimit="10" stroke-width="5" d="M178.03 109c.42-1.41.86-2.74 1.33-3.98a51.27 51.27 0 01-15.9-2.87c-4.27-1.52-7.85-3.46-13.27-6.42-3.17-1.72-5.6-3.13-7.71-4.45-10.8-6.83-24.12-17.05-24.12-18.09V59.93c-6.63 2.65-22.54 5.3-22.54 5.3a57.72 57.72 0 00-27.37-7.95 178 178 0 00-8.43-11.94c-.56-.73-2.47-3.25-5.29-6.57a367.46 367.46 0 00-17.25-18.63s-5.3 9.28-6.63 17.24a184.93 184.93 0 01-2.65 13.26s-2.65-1.32-2.65-3.97c0-2.66-2.65 3.97-2.65 3.97s-1.33 17.24-2.65 25.2c-1.33 7.95-1.66 9.27-1.66 9.27A147.4 147.4 0 003 151.41a147.36 147.36 0 009.79 51.72 109.81 109.81 0 0115.41-27.84c2.23-2.92 5.25-6.92 10.02-11.26 8.04-7.33 16.93-11.96 27.12-16.59 14.58-6.63 31.82-11.93 31.82-11.93l-5.3-1.32c-5.3-1.33-11.93-5.3-11.93-5.3 21.1 1.67 38.22 1.69 50.4 1.32 0 0 18.52-.56 35.04-5.33 4.96-1.42 9.3-3.54 9.3-3.54.58-.28 1.05-.52 1.35-.68.2-3.42.77-7.39 2.01-11.67z"/><path fill="#B7B7B7" d="M54.42 60.7c-.34 2.26-3.12 2.12-9.21 6.63-4.6 3.39-6.21 5.83-7.4 5.25-1.02-.51-.47-2.63-.17-7.62.3-5.02.3-11.97 1.89-19.72.15-.73.39-1.84 1.06-2.02 1.38-.37 14.2 15.08 13.83 17.49zM115.03 99.43a5.3 5.3 0 01-1.1 2.71 5.3 5.3 0 01-3.19 1.57c-5.52 1.08-11.42 0-11.42 0l-.54-.42a36.47 36.47 0 015.05-7.51c1.67-1.9 2.5-2.45 3.3-2.8 2.29-.99 5.89-1.08 7.47 1.02 1.17 1.55.77 3.66.43 5.43z"/><path fill="#B7B7B7" stroke="#B7B7B7" stroke-miterlimit="10" stroke-width="1.98" d="M187.81 115.83a14.36 14.36 0 01-3.18 2.35 172.9 172.9 0 01-2.7 1.42 57.68 57.68 0 01-7.89 3.54 58.66 58.66 0 013.59-19.46c1.67-.07 3.15-.1 4.4-.1 1.67 0 2.84.02 4.4.13 1.66.13 3.12.34 4.31.56.02.4.42 8.2-2.93 11.56z"/><path stroke="#B7B7B7" stroke-miterlimit="10" stroke-width="5" d="M168.58 236.88c-.65-.01.35 7.33-3.29 11.39-3.73 4.17-10.57 2.9-10.57 3.6 0 .69 6.86-.62 10.57 3.51 3.85 4.28 2.56 12.43 3.1 12.43.56 0-.64-8.17 3.26-12.43 3.7-4.04 10.34-2.8 10.34-3.52 0-.72-6.73.52-10.34-3.59-3.56-4.05-2.4-11.39-3.07-11.4zM252.35 103.28c.04 1.86-.04 3.1.18 3.1.62-.02-1.39-10.14 4.01-15.85 4.92-5.2 13.52-4.13 13.52-5.83 0-1.19-8.8.86-13.52-5.96-4.66-6.7-3.15-18.86-4-18.87"/><path stroke="#B7B7B7" stroke-miterlimit="10" stroke-width="5" d="M252.14 62.35c-.21 3.91-.5 11.55-3.92 16.39-4.89 6.9-13.85 4.81-13.85 5.95 0 1.67 8.78.56 13.85 5.83 3.57 3.72 4.05 9.3 4.12 12.76M252.53 59.86c-.24 0-.3.96-.38 2.49"/></svg>