<svg width="388" height="385" fill="none" xmlns="http://www.w3.org/2000/svg">
  <path d="M13.21 254.73c9.04 19.37 28.4799 53.97 66.5199 82.75C139.29 382.55 203.81 382.62 224.08 381.82" stroke="#B7B7B7" stroke-width="4.9905" stroke-miterlimit="10" stroke-linecap="round"/>
  <path d="M181.98 116.11c-13.89-8.78-31.01-21.91-31.01-23.25V75.81c-8.52 3.41-28.98 6.82-28.98 6.82s-.85-.85-3.2-2.13c-4.19-2.28-7.85-3.63-12.15-4.69-7.78-1.93-15.0701-2.9-19.8501-3.4-3.2-4.95-6.7899-10.1-10.8299-15.36-2.28-2.96-4.5501-5.78-6.8001-8.44C95.5899 25.87 128.32 10.25 164.38 4.73" stroke="#B7B7B7" stroke-width="5" stroke-miterlimit="10"/>
  <path d="M323.67 129.6c-7.53 33.27-28.37 54.55-36.54 62.89-8.97 9.16-17.16 16.18-35.67 26.76-35.8 20.46-86.95 28.98-107.41 100.59-3.04-9.4-9.84-34.79 0-63.08 6.11-17.56 16.18-29.2 18.62-31.94 1.86-2.09 10.81-12.13 22.28-18.84 5.4-3.16 10.71-6.47 16.12-9.61.67-.39 2.86-1.69 5.69-3.59 0 0 1.3-.89 2.6-1.85 15.57-11.44 20.36-18.08 20.36-18.08 6.41-8.89 9.33-19.5 9.88-24.31.03-.27.08-.75.17-1.4.3-2.08.71-3.57.81-3.99.33-1.29.6-3.34.3-6.64-.36-.42-.9-.96-1.65-1.42-2.03-1.26-4.35-1.22-6.14-1.19-.08 0-.08 0-2.7.06-.64.01-1.04.02-1.08.03-8.94.21-20.33-3.8-20.33-3.8-6.12-2.16-10.3-4.42-17.17-8.13-4.18-2.26-7.57-4.29-9.91-5.73M164.27 4.96001c9.53-1.47 19.28-2.23001 29.22-2.23001 42.62 0 81.97 13.96 113.75 37.56 0 0 0 .02.02.03 2.95 5.44 5.9 11.31 8.8 17.59 2.78 6.05 5.23 11.89 7.4 17.47" stroke="#B7B7B7" stroke-width="5" stroke-miterlimit="10" stroke-linejoin="round"/>
  <path d="M323.45 75.37c-2.35-7-5.37-14.62-9.27-22.62-2.12-4.35-4.3-8.4-6.48-12.16 6.45 4.76 14.87 11.61 23.81 20.88 4.81 4.99 16.34 17.49 26.86 35.34 16.46 27.94 22.4 55.32 24.74 73.09" stroke="#B7B7B7" stroke-width="5" stroke-miterlimit="10" stroke-linecap="round" stroke-linejoin="round"/>
  <path d="M192.23 370.13c-15.51-7.33-36.95-21.02-46.03-44.9-.65-1.71-1.21-3.41-1.71-5.11 20.46-71.6 71.61-80.13 107.41-100.59 18.04-10.31 26.28-17.23 35.67-26.76 28.27-28.69 36.11-61.12 36.11-61.12" stroke="#B7B7B7" stroke-width="5" stroke-miterlimit="10" stroke-linejoin="round"/>
  <path d="M207.59 321.45c-4.49.13-8.6.59-12.29 1.57-32.39 8.52-20.46 34.1-20.46 34.1M383.06 169.52c.97 7.83 1.48 15.82 1.48 23.92 0 36.55-10.28 70.72-28.1 99.74-48.42 39.42-97.39 31.33-132.37 28.81" stroke="#B7B7B7" stroke-width="5" stroke-miterlimit="10" stroke-linecap="round"/>
  <path d="M226.43 322.17c34.8 2.68 82.67 9.55 130.02-28.99-28.52 46.48-76.36 79.81-132.37 88.79-34.27-7.54-49.24-24.86-49.24-24.86s-11.93-25.57 20.46-34.1c3.2-.84 6.72-1.3 10.52-1.5" stroke="#B7B7B7" stroke-width="5" stroke-miterlimit="10" stroke-linejoin="round"/>
  <path d="M227.7 139c.53-1.81 1.1-3.51 1.71-5.11-9.08-.24-15.97-2.1-20.45-3.69-5.49-1.95-10.09-4.45-17.06-8.25-4.07-2.22-7.2-4.02-9.91-5.73-13.89-8.78-31.01-21.91-31.01-23.25V75.92c-8.52 3.41-28.98 6.82-28.98 6.82-3.91-2.3-9.05-4.84-15.34-6.82-7.7702-2.45-14.6801-3.22-19.8501-3.4-2.58-4-6.19-9.32-10.83-15.36-.72-.93-3.18-4.18-6.8-8.44-10.08-11.85-22.18-23.95-22.18-23.95s-6.82 11.93-8.52 22.16c-1.7 10.23-3.41 17.05-3.41 17.05s-3.4101-1.7-3.4101-5.11-3.4099 5.11-3.4099 5.11-1.71 22.16-3.41 32.39c-1.71 10.23-2.13 11.93-2.13 11.93-4.46 8.93-8.24 18.25-11.28 27.9-8.05004 25.59-8.80002 47.03-8.76002 57.34.05 10.1.97998 33.66 10.60002 61.1.79 2.25 1.49 4.1 1.98 5.38 6.04-15.91 13.65-27.72 19.82-35.79 2.86-3.75 6.74-8.89 12.88-14.48 10.34-9.42 21.77-15.37 34.86-21.32 18.7501-8.52 40.9201-15.34 40.9201-15.34l-6.82-1.7c-6.82-1.71-15.34-6.82-15.34-6.82 27.12 2.15 49.14 2.18 64.79 1.7 0 0 23.82-.72 45.06-6.84 6.37-1.83 11.96-4.56 11.96-4.56.74-.36 1.35-.67 1.73-.87.25-4.4.99-9.5 2.59-15z" stroke="#B7B7B7" stroke-width="5" stroke-miterlimit="10" stroke-linecap="round" stroke-linejoin="round"/>
  <path d="M68.7799 76.92c-.44 2.9-4.02 2.72-11.85 8.51-5.9 4.36-7.9801 7.5-9.5101 6.75-1.31-.65-.5999-3.37-.2199-9.79.39-6.45.38-15.39 2.43-25.35.19-.94.5-2.37 1.37-2.6 1.77-.48 18.25 19.38 17.78 22.48zM146.7 126.7c-.23 1.2-.47 2.4-1.42 3.49-1.18 1.36-2.8 1.77-4.09 2.02-7.1 1.39-14.69 0-14.69 0l-.69-.54c2.25-4.42 4.67-7.58 6.49-9.66 2.14-2.45 3.22-3.15 4.25-3.6 2.93-1.27 7.56-1.39 9.6 1.31 1.5 1.99.98 4.71.55 6.98z" fill="#B7B7B7"/>
  <path d="M240.27 147.79c-1.89 1.89-4.09 3.02-4.09 3.02-1.31.71-2.48 1.32-3.46 1.83-2.18 1.12-4.09 2.09-6.58 3.15-1.37.58-2.57 1.04-3.56 1.4.07-5.25.67-11.65 2.56-18.66.62-2.28 1.31-4.4 2.04-6.36 2.15-.09 4.05-.12 5.66-.12 2.14 0 3.65.01 5.65.16 2.14.16 4.01.43 5.55.71.02.51.53 10.56-3.77 14.87z" fill="#B7B7B7" stroke="#B7B7B7" stroke-width="1.9779" stroke-miterlimit="10"/>
  <path d="M215.55 303.41c-.84-.01.44 9.43-4.23 14.65-4.8 5.36-13.6 3.73-13.6 4.62 0 .89 8.83-.79 13.6 4.52 4.94 5.5 3.28 15.98 3.99 15.98.71 0-.83-10.5 4.18-15.98 4.75-5.2 13.29-3.6 13.29-4.52 0-.93-8.64.66-13.29-4.62-4.57-5.21-3.09-14.64-3.94-14.65zM323.24 131.65c.05 2.39-.05 3.98.23 3.98.8-.01-1.78-13.03 5.16-20.37 6.32-6.69 17.38-5.31 17.38-7.49 0-1.53-11.31 1.1-17.38-7.66-5.99-8.63-4.05-24.25-5.15-24.27" stroke="#B7B7B7" stroke-width="5" stroke-miterlimit="10"/>
  <path d="M322.97 79.03c-.27 5.03-.64 14.85-5.04 21.07-6.28 8.88-17.8 6.19-17.8 7.66 0 2.14 11.28.71 17.8 7.49 4.59 4.78 5.21 11.96 5.3 16.4M323.48 75.83c-.31-.01-.4 1.23-.5 3.2" stroke="#B7B7B7" stroke-width="5" stroke-miterlimit="10"/>
</svg>
