<svg xmlns="http://www.w3.org/2000/svg" viewBox="0 0 100 100"><g id="surface1446958"><path style="stroke:none;fill-rule:nonzero;fill:#3498db;fill-opacity:1" d="M 4 4 C 1.789062 4 0 5.789062 0 8 C 0 10.210938 1.789062 12 4 12 C 6.210938 12 8 10.210938 8 8 L 17.3125 8 C 21.484375 8 23.085938 9.335938 24.4375 13.875 L 40.4375 78.4375 C 41.289062 81.65625 42.25 85.21875 45.875 86.9375 C 44.734375 88.320312 44 90.070312 44 92 C 44 96.414062 47.585938 100 52 100 C 56.414062 100 60 96.414062 60 92 C 60 90.539062 59.5625 89.179688 58.875 88 L 71.125 88 C 70.4375 89.179688 70 90.539062 70 92 C 70 96.414062 73.585938 100 78 100 C 82.414062 100 86 96.414062 86 92 C 86 89.921875 85.179688 88.046875 83.875 86.625 C 83.945312 86.421875 84 86.226562 84 86 C 84 84.898438 83.101562 84 82 84 L 51.4375 84 C 46.046875 84 45.460938 81.84375 44.3125 77.5 L 42.9375 72 L 79.625 72 C 80.453125 72 81.210938 71.460938 81.5 70.6875 L 95.875 32.6875 C 96.109375 32.078125 95.992188 31.414062 95.625 30.875 C 95.257812 30.335938 94.648438 30 94 30 L 32.5625 30 L 28.3125 12.8125 C 26.953125 8.234375 24.640625 4 17.3125 4 Z M 52 88 C 54.203125 88 56 89.796875 56 92 C 56 94.203125 54.203125 96 52 96 C 49.796875 96 48 94.203125 48 92 C 48 89.796875 49.796875 88 52 88 Z M 78 88 C 80.203125 88 82 89.796875 82 92 C 82 94.203125 80.203125 96 78 96 C 75.796875 96 74 94.203125 74 92 C 74 89.796875 75.796875 88 78 88 Z M 78 88"/></g></svg>