<svg xmlns="http://www.w3.org/2000/svg" fill="#000" viewBox="0 0 50 50"><path fill="none" stroke="#000" stroke-miterlimit="10" stroke-width="2" d="M38 42.434c0 0-1.105-4.25-5.1-6.001M25 3A22 22 0 1 0 25 47 22 22 0 1 0 25 3z"/><path fill="none" stroke="#000" stroke-miterlimit="10" stroke-width="2" d="M25 38c10.494 0 15-6.043 15-6.043C39.953 25.534 37 21 37 21c2.457-5.635-2-9-2-9l-4 4c0 0-2.235-1.104-6-1.104M12 42.434c0 0 1.105-4.25 5.1-6.001"/><path fill="none" stroke="#000" stroke-miterlimit="10" stroke-width="2" d="M25 14.896c-3.765 0-6 1.104-6 1.104l-4-4c0 0-4.457 3.365-2 9 0 0-2.953 4.534-3 10.957 0 0 4.506 6.043 15 6.043M30 23A3 3 0 1 0 30 29 3 3 0 1 0 30 23z"/><path fill="none" stroke="#000" stroke-miterlimit="10" stroke-width="2" d="M20 23A3 3 0 1 0 20 29A3 3 0 1 0 20 23Z"/><path d="M22.5 31L27.5 31 25 33.5z"/></svg>