<svg xmlns="http://www.w3.org/2000/svg" width="1445.333" height="1445.333" version="1" viewBox="0 0 1084 1084"><path d="M499.5 188c-5.5.5-15.4 1.6-22 2.6-142.7 19.9-261 119-305.6 255.9-8.1 24.6-13.5 50.6-16.5 78.8-2 19-1.4 67 1 84.2 11.5 81 43.8 149.9 97.2 207.7 60 64.8 137.1 104.5 227.9 117.4 17.2 2.4 65.2 3 84.2 1 46.3-4.9 85.1-15.9 126-35.6 40.7-19.7 75.7-44.9 106.4-76.8 84.7-87.8 121.1-207.7 99.8-328.2-9.5-54.1-34.7-112.2-67.6-156-29.1-38.8-67.2-73.6-105.7-96.6-7.2-4.4-13.3-8.1-13.6-8.4-.3-.3-8.1-4.2-17.5-8.7-40.2-19.4-77.7-30.5-122-35.9-15.2-1.8-57.5-2.6-72-1.4zm217 87.6c5.6 2.6 9.5 9.3 9.5 16.3 0 3.4-.7 7-1.8 9-6.2 12.3-23.4 13.6-31.9 2.5-2.1-2.9-2.8-5-3.1-10-.4-5.5-.1-6.9 2.2-10.9 5.1-8.6 15.5-11.5 25.1-6.9zm-218 70.4c3.6 1.4 5.6 6.3 10.9 27.6 13.9 55.4 26.9 83 49.2 104.4 13.2 12.7 29.2 20.7 49.1 24.7 11.6 2.3 38.9 2.3 56.5 0 17.5-2.3 23.8-2.2 27.2.4 1.9 1.5 2.6 3 2.6 5.5 0 5.1-3.3 7.8-13.1 10.7-4.6 1.4-14 4.1-20.9 6.2-55 16.1-81.7 43.3-90.7 92.5-1.3 7.2-1.7 15-1.7 32 0 24 .4 28.9 6 64.3 2 12.5 3.3 23.8 3 25.2-1.5 6-9.1 7.5-12.8 2.5-1.1-1.5-3.9-11.6-6.9-25-8.5-37.3-14.2-55.4-24.4-76.5-14.1-29.3-33.8-49.7-56.8-58.5-16.7-6.5-23-7.5-47.2-7.5-16.6 0-24.8.5-33.5 1.9-14.7 2.4-24.1 2.6-26.4.6-4.6-3.7-4-10.2 1.3-13.3 1.6-.9 11.1-3.9 21.2-6.7 35.3-9.8 56.2-20.3 72.4-36.5 29.1-29 36.7-69.5 27-143.3-1.4-10.3-2.5-20.1-2.5-21.9 0-4.2 1.7-7.9 4.4-9.1 2.7-1.4 3-1.4 6.1-.2zm-86.4 444.6c3.9 2 7.7 6.9 9 11.7 3.3 12.2-5.4 23.7-18 23.7-11.2 0-19.1-7.9-19.1-19.1 0-13.8 15.5-22.8 28.1-16.3z"/></svg>